# Blender v2.91.0 OBJ File: ''
# www.blender.org
mtllib blast_furnace.mtl
o cube.002
v -0.625000 -1.000000 -1.625000
v 1.625000 -1.000000 -1.625000
v 1.625000 -1.000000 -1.125000
v -0.625000 -1.000000 -1.125000
v 1.625000 0.125000 -1.125000
v -0.625000 0.125000 -1.125000
v -0.625000 0.125000 -1.625000
v 1.625000 0.125000 -1.625000
v 1.250000 -1.000000 -2.000000
v -0.250000 -1.000000 -2.000000
v -0.250000 0.000000 -2.000000
v 1.250000 0.000000 -2.000000
v 1.250000 -1.000000 -1.625000
v -0.250000 -1.000000 -1.625000
v -0.250000 0.000000 -1.625000
v 1.250000 0.000000 -1.625000
v 0.000000 0.563801 -1.436199
v 1.000000 0.563801 -1.436199
v 1.000000 0.000000 -2.000000
v 0.000000 0.000000 -2.000000
v 1.000000 0.000000 -1.442481
v 0.000000 0.000000 -1.442481
v 1.437500 0.562500 -1.437500
v 1.437500 0.562500 -1.125000
v -0.437500 0.562500 -1.437500
v -0.437500 0.562500 -1.125000
v -0.437500 0.125000 -1.125000
v 1.437500 0.125000 -1.125000
v -0.625000 -1.000000 0.625000
v -0.625000 -1.000000 0.125000
v 1.625000 -1.000000 0.125000
v 1.625000 -1.000000 0.625000
v -0.625000 0.125000 0.125000
v 1.625000 0.125000 0.125000
v 1.625000 0.125000 0.625000
v -0.625000 0.125000 0.625000
v 1.250000 -1.000000 1.000000
v 1.250000 -0.000000 1.000000
v -0.250000 -0.000000 1.000000
v -0.250000 -1.000000 1.000000
v -0.250000 -1.000000 0.625000
v 1.250000 -1.000000 0.625000
v -0.250000 -0.000000 0.625000
v 1.250000 -0.000000 0.625000
v 0.000000 0.563801 0.436199
v 0.000000 -0.000000 1.000000
v 1.000000 -0.000000 1.000000
v 1.000000 0.563801 0.436199
v 1.000000 -0.000000 0.442481
v 0.000000 -0.000000 0.442481
v 1.437500 0.562500 0.125000
v 1.437500 0.562500 0.437500
v -0.437500 0.562500 0.437500
v -0.437500 0.562500 0.125000
v -0.437500 0.125000 0.125000
v 1.437500 0.125000 0.125000
v -0.125000 -1.000000 -1.125000
v 1.125000 -1.000000 -1.125000
v 1.125000 -1.000000 0.125000
v -0.125000 -1.000000 0.125000
v 1.125000 0.000000 -1.125000
v 1.125000 -0.000000 0.125000
v -0.125000 -0.000000 0.125000
v -0.125000 0.000000 -1.125000
v -0.250000 -1.000000 -1.000000
v -0.125000 -1.000000 -1.000000
v -0.125000 -1.000000 -0.000000
v -0.250000 -1.000000 -0.000000
v -0.125000 -0.000000 0.000000
v -0.250000 -0.000000 0.000000
v -0.250000 0.000000 -1.000000
v -0.125000 0.000000 -1.000000
v 1.125000 -1.000000 -1.000000
v 1.250000 -1.000000 -1.000000
v 1.250000 -1.000000 -0.000000
v 1.125000 -1.000000 -0.000000
v 1.250000 -0.000000 0.000000
v 1.125000 -0.000000 0.000000
v 1.125000 0.000000 -1.000000
v 1.250000 0.000000 -1.000000
v -0.437500 0.000000 -1.125000
v 1.437500 0.000000 -1.125000
v 1.437500 -0.000000 0.125000
v -0.437500 -0.000000 0.125000
v 0.187500 2.000000 -0.812500
v 0.812500 2.000000 -0.812500
v 0.812500 2.000000 -1.187500
v 0.187500 2.000000 -1.187500
v 0.187500 1.500000 -0.812500
v 0.812500 1.500000 -0.812500
v 0.812500 1.500000 -1.187500
v 0.187500 1.500000 -1.187500
v -0.187500 2.000000 0.187500
v 0.187500 2.000000 0.187500
v -0.187500 2.000000 -1.187500
v -0.187500 1.500000 0.187500
v 0.187500 1.500000 0.187500
v -0.187500 1.500000 -1.187500
v 0.812500 1.500000 -0.187500
v 0.812500 2.000000 -0.187500
v 0.812500 2.000000 0.187500
v 1.187500 2.000000 0.187500
v 1.187500 2.000000 -1.187500
v 0.812500 1.500000 0.187500
v 1.187500 1.500000 0.187500
v 1.187500 1.500000 -1.187500
v 0.187500 2.000000 -0.187500
v 0.187500 1.500000 -0.187500
v -0.250000 1.125000 -1.250000
v -0.250000 1.125000 0.250000
v 1.250000 1.125000 -1.250000
v 1.250000 1.125000 0.250000
vt 0.914062 0.515625
vt 0.632812 0.515625
vt 0.632812 0.453125
vt 0.914062 0.453125
vt 0.718750 0.859375
vt 0.437500 0.859375
vt 0.437500 1.000000
vt 0.718750 1.000000
vt 0.914062 0.656250
vt 0.632812 0.656250
vt 0.570312 0.515625
vt 0.570312 0.656250
vt 0.976562 0.515625
vt 0.976562 0.656250
vt 0.765625 0.828125
vt 0.953125 0.828125
vt 0.953125 0.953125
vt 0.765625 0.953125
vt 0.765625 0.781250
vt 0.953125 0.781250
vt 1.000000 0.828125
vt 1.000000 0.953125
vt 0.953125 1.000000
vt 0.765625 1.000000
vt 0.718750 0.828125
vt 0.718750 0.953125
vt 0.656250 0.859375
vt 0.531250 0.859375
vt 0.531250 0.757812
vt 0.656250 0.757812
vt 0.648438 0.757812
vt 0.750000 0.757812
vt 0.648438 0.859375
vt 0.539062 0.757812
vt 0.539062 0.859375
vt 0.437500 0.757812
vt 0.609375 0.718750
vt 0.570312 0.718750
vt 0.656250 0.718750
vt 0.890625 0.718750
vt 0.976562 0.718750
vt 0.937500 0.718750
vt 1.000000 0.664062
vt 1.000000 0.718750
vt 0.546875 0.664062
vt 0.546875 0.718750
vt 0.914062 0.515625
vt 0.914062 0.453125
vt 0.632812 0.453125
vt 0.632812 0.515625
vt 0.718750 0.859375
vt 0.718750 1.000000
vt 0.437500 1.000000
vt 0.437500 0.859375
vt 0.632812 0.656250
vt 0.914062 0.656250
vt 0.570312 0.515625
vt 0.570312 0.656250
vt 0.976562 0.656250
vt 0.976562 0.515625
vt 0.765625 0.828125
vt 0.765625 0.953125
vt 0.953125 0.953125
vt 0.953125 0.828125
vt 0.953125 0.781250
vt 0.765625 0.781250
vt 1.000000 0.953125
vt 1.000000 0.828125
vt 0.953125 1.000000
vt 0.765625 1.000000
vt 0.718750 0.828125
vt 0.718750 0.953125
vt 0.656250 0.859375
vt 0.656250 0.757812
vt 0.531250 0.757812
vt 0.531250 0.859375
vt 0.648438 0.757812
vt 0.648438 0.859375
vt 0.750000 0.757812
vt 0.539062 0.757812
vt 0.437500 0.757812
vt 0.539062 0.859375
vt 0.570312 0.718750
vt 0.609375 0.718750
vt 0.656250 0.718750
vt 0.890625 0.718750
vt 0.937500 0.718750
vt 0.976562 0.718750
vt 1.000000 0.664062
vt 1.000000 0.718750
vt 0.546875 0.664062
vt 0.546875 0.718750
vt 0.687500 0.171875
vt 0.843750 0.171875
vt 0.843750 0.328125
vt 0.687500 0.328125
vt 0.687500 0.328125
vt 0.843750 0.328125
vt 0.843750 0.453125
vt 0.687500 0.453125
vt 0.687500 0.328125
vt 0.843750 0.328125
vt 0.843750 0.453125
vt 0.687500 0.453125
vt 0.367188 0.187500
vt 0.367188 0.171875
vt 0.492188 0.171875
vt 0.492188 0.187500
vt 0.507812 0.187500
vt 0.507812 0.312500
vt 0.492188 0.312500
vt 0.351562 0.187500
vt 0.367188 0.312500
vt 0.351562 0.312500
vt 0.656250 0.171875
vt 0.656250 0.187500
vt 0.531250 0.187500
vt 0.531250 0.171875
vt 0.515625 0.187500
vt 0.531250 0.312500
vt 0.515625 0.312500
vt 0.671875 0.187500
vt 0.671875 0.312500
vt 0.656250 0.312500
vt 1.000000 0.148438
vt 1.000000 0.382812
vt 0.843750 0.382812
vt 0.843750 0.148438
vt 1.000000 0.453125
vt 0.843750 0.453125
vt 0.843750 0.382812
vt 1.000000 0.382812
vt 1.000000 0.453125
vt 0.843750 0.453125
vt 0.312500 0.875000
vt 0.234375 0.875000
vt 0.234375 0.828125
vt 0.312500 0.828125
vt 0.359375 0.937500
vt 0.437500 0.937500
vt 0.437500 1.000000
vt 0.359375 1.000000
vt 0.156250 0.687500
vt 0.234375 0.687500
vt 0.234375 0.750000
vt 0.156250 0.750000
vt 0.359375 1.000000
vt 0.312500 1.000000
vt 0.359375 0.828125
vt 0.109375 0.492188
vt 0.156250 0.492188
vt 0.156250 0.554688
vt 0.109375 0.554688
vt 0.281250 0.687500
vt 0.281250 0.750000
vt 0.359375 0.875000
vt 0.437500 0.875000
vt 0.437500 0.937500
vt 0.359375 0.937500
vt 0.351562 0.687500
vt 0.523438 0.687500
vt 0.523438 0.750000
vt 0.351562 0.750000
vt 0.234375 1.000000
vt 0.187500 1.000000
vt 0.187500 0.828125
vt 0.234375 0.492188
vt 0.281250 0.492188
vt 0.281250 0.554688
vt 0.234375 0.554688
vt 0.109375 0.687500
vt 0.109375 0.750000
vt 0.351562 0.492188
vt 0.523438 0.492188
vt 0.523438 0.554688
vt 0.351562 0.554688
vt 0.437500 0.750000
vt 0.437500 0.812500
vt 0.359375 0.812500
vt 0.359375 0.750000
vt 0.234375 0.953125
vt 0.312500 0.953125
vt 0.359375 0.812500
vt 0.437500 0.812500
vt 0.437500 0.875000
vt 0.359375 0.875000
vt 0.234375 0.953125
vt 0.234375 0.875000
vt 0.312500 0.875000
vt 0.312500 0.953125
vt 0.343750 0.640625
vt 0.531250 0.640625
vt 0.101562 0.640625
vt 0.289062 0.640625
vt 0.531250 0.445312
vt 0.343750 0.445312
vt 0.289062 0.445312
vt 0.101562 0.445312
vt 0.320312 0.562500
vt 0.554688 0.562500
vt 0.078125 0.367188
vt 0.312500 0.367188
vt 0.320312 0.367188
vt 0.554688 0.367188
vt 0.312500 0.562500
vt 0.078125 0.562500
vn 0.0000 -1.0000 -0.0000
vn 0.0000 -0.0000 1.0000
vn 0.0000 0.0000 -1.0000
vn 1.0000 0.0000 0.0000
vn -1.0000 0.0000 0.0000
vn 0.0000 1.0000 0.0000
vn 0.0000 0.7071 -0.7071
vn 0.9191 0.3939 0.0000
vn 0.0000 0.3939 -0.9191
vn -0.9191 0.3939 0.0000
vn 0.0000 0.7071 0.7071
vn 0.0000 0.3939 0.9191
vn -0.9864 0.1644 0.0000
vn 0.0000 0.1644 -0.9864
vn 0.9864 0.1644 0.0000
vn 0.0000 0.1644 0.9864
vn -0.9487 0.3162 0.0000
vn 0.0000 0.3162 0.9487
vn 0.9487 0.3162 0.0000
vn 0.0000 0.3162 -0.9487
usemtl none
s off
f 1/1/1 2/2/1 3/3/1 4/4/1
f 4/5/2 3/6/2 5/7/2 6/8/2
f 2/2/3 1/1/3 7/9/3 8/10/3
f 3/11/4 2/2/4 8/10/4 5/12/4
f 1/1/5 4/13/5 6/14/5 7/9/5
f 9/15/3 10/16/3 11/17/3 12/18/3
f 10/16/1 9/15/1 13/19/1 14/20/1
f 10/16/5 14/21/5 15/22/5 11/17/5
f 15/23/6 16/24/6 12/18/6 11/17/6
f 13/25/4 9/15/4 12/18/4 16/26/4
f 17/27/7 18/28/7 19/29/7 20/30/7
f 21/31/4 19/32/4 18/33/4
f 22/34/5 17/35/5 20/36/5
f 5/12/8 8/10/8 23/37/8 24/38/8
f 23/39/9 8/10/9 7/9/9 25/40/9
f 7/9/10 6/14/10 26/41/10 25/42/10
f 27/43/2 26/44/2 6/14/2
f 28/45/3 24/46/3 5/12/3
f 29/47/1 30/48/1 31/49/1 32/50/1
f 30/51/3 33/52/3 34/53/3 31/54/3
f 32/50/2 35/55/2 36/56/2 29/47/2
f 31/57/4 34/58/4 35/55/4 32/50/4
f 29/47/5 36/56/5 33/59/5 30/60/5
f 37/61/2 38/62/2 39/63/2 40/64/2
f 40/64/1 41/65/1 42/66/1 37/61/1
f 40/64/5 39/63/5 43/67/5 41/68/5
f 43/69/6 39/63/6 38/62/6 44/70/6
f 42/71/4 44/72/4 38/62/4 37/61/4
f 45/73/11 46/74/11 47/75/11 48/76/11
f 49/77/4 48/78/4 47/79/4
f 50/80/5 46/81/5 45/82/5
f 34/58/8 51/83/8 52/84/8 35/55/8
f 52/85/12 53/86/12 36/56/12 35/55/12
f 36/56/10 53/87/10 54/88/10 33/59/10
f 55/89/3 33/59/3 54/90/3
f 56/91/2 34/58/2 51/92/2
f 57/93/1 58/94/1 59/95/1 60/96/1
f 59/97/4 58/98/4 61/99/4 62/100/4
f 57/101/5 60/102/5 63/103/5 64/104/5
f 65/105/1 66/106/1 67/107/1 68/108/1
f 68/108/2 67/109/2 69/110/2 70/111/2
f 66/112/3 65/105/3 71/113/3 72/114/3
f 65/105/5 68/108/5 70/111/5 71/113/5
f 73/115/1 74/116/1 75/117/1 76/118/1
f 76/119/2 75/117/2 77/120/2 78/121/2
f 74/116/3 73/122/3 79/123/3 80/124/3
f 75/117/4 74/116/4 80/124/4 77/120/4
f 81/125/1 82/126/1 83/127/1 84/128/1
f 83/127/4 82/126/4 24/129/4 51/130/4
f 81/131/5 84/132/5 54/133/5 26/134/5
f 85/135/6 86/136/6 87/137/6 88/138/6
f 89/139/2 90/140/2 86/141/2 85/142/2
f 91/143/3 92/144/3 88/145/3 87/146/3
f 93/147/6 94/148/6 88/138/6 95/149/6
f 96/150/2 97/151/2 94/152/2 93/153/2
f 92/144/3 98/154/3 95/155/3 88/145/3
f 90/156/5 99/157/5 100/158/5 86/159/5
f 98/160/5 96/161/5 93/162/5 95/163/5
f 101/164/6 102/165/6 103/166/6 87/137/6
f 104/167/2 105/168/2 102/169/2 101/170/2
f 106/171/3 91/143/3 87/146/3 103/172/3
f 105/173/4 106/174/4 103/175/4 102/176/4
f 89/177/4 85/178/4 107/179/4 108/180/4
f 94/148/6 101/164/6 100/181/6 107/182/6
f 97/151/2 104/167/2 101/170/2 94/152/2
f 99/183/3 108/184/3 107/185/3 100/186/3
f 89/187/6 108/188/6 99/189/6 90/190/6
f 96/161/13 98/160/13 109/191/13 110/192/13
f 111/193/14 109/194/14 98/154/14 106/171/14
f 111/195/15 106/174/15 105/173/15 112/196/15
f 112/197/16 105/168/16 96/150/16 110/198/16
f 109/191/17 25/199/17 53/200/17 110/192/17
f 53/201/18 52/202/18 112/197/18 110/198/18
f 112/196/19 52/203/19 23/204/19 111/195/19
f 25/205/20 109/194/20 111/193/20 23/206/20
