# Blender v2.91.0 OBJ File: 'cating_machine.blend'
# www.blender.org
mtllib cating_machine.mtl
o cube.020
v 0.125000 1.000000 2.500000
v 0.375000 1.000000 2.750000
v 0.375000 1.500000 1.750000
v 0.375000 1.000000 1.750000
v 0.125000 1.500000 1.750000
v 0.125000 1.000000 1.750000
v 0.375000 1.000000 2.500000
v 0.125000 1.000000 2.750000
v 1.000000 1.250000 1.125000
v 1.000000 1.000000 1.125000
v 1.000000 1.250000 0.125000
v 1.000000 1.000000 0.125000
v 0.375000 1.250000 0.125000
v 0.375000 1.000000 0.125000
v 0.375000 1.250000 1.125000
v 0.375000 1.000000 1.125000
v 0.375000 2.500000 1.750000
v 0.375000 1.000000 1.750000
v 0.375000 2.500000 1.250000
v 0.375000 1.000000 1.250000
v 0.000000 2.500000 1.250000
v 0.000000 1.000000 1.250000
v 0.000000 2.500000 1.750000
v 0.000000 1.000000 1.750000
v 0.375000 1.500000 1.250000
v 0.375000 1.000000 1.250000
v 0.375000 1.500000 0.750000
v 0.375000 1.000000 0.500000
v 0.125000 1.500000 0.750000
v 0.125000 1.000000 0.500000
v 0.125000 1.500000 1.250000
v 0.125000 1.000000 1.250000
v 0.125000 1.250000 0.500000
v 0.125000 1.250000 1.250000
v 0.375000 1.250000 0.500000
v 0.625000 1.937500 0.375000
v 0.625000 1.625000 0.375000
v 0.375000 1.937500 0.375000
v 0.625000 1.250000 1.062500
v 0.625000 1.250000 0.750000
v 0.375000 1.250000 1.062500
v 0.375000 1.250000 0.750000
v 0.375000 1.250000 0.437500
v 0.375000 1.625000 0.375000
v 0.375000 1.625000 0.062500
v 0.625000 1.625000 0.062500
v 0.625000 1.250000 0.437500
v 0.687500 2.000000 0.000000
v 0.687500 2.000000 0.375000
v 0.312500 2.000000 0.000000
v 0.687500 1.625000 0.000000
v 0.687500 1.625000 0.375000
v 0.312500 1.625000 0.000000
v 0.312500 1.625000 0.375000
v 0.312500 2.000000 0.375000
v 0.375000 1.500000 2.500000
v 0.375000 1.250000 2.750000
v 0.125000 1.250000 2.750000
v 0.125000 1.500000 2.500000
v 0.375000 1.250000 1.250000
v 2.875000 1.000000 2.500000
v 2.625000 1.000000 2.750000
v 2.625000 1.500000 1.750000
v 2.625000 1.000000 1.750000
v 2.875000 1.500000 1.750000
v 2.875000 1.000000 1.750000
v 2.625000 1.000000 2.500000
v 2.875000 1.000000 2.750000
v 2.000000 1.250000 1.125000
v 2.000000 1.000000 1.125000
v 2.000000 1.250000 0.125000
v 2.000000 1.000000 0.125000
v 2.625000 1.250000 0.125000
v 2.625000 1.000000 0.125000
v 2.625000 1.250000 1.125000
v 2.625000 1.000000 1.125000
v 2.625000 2.500000 1.750000
v 2.625000 1.000000 1.750000
v 2.625000 2.500000 1.250000
v 2.625000 1.000000 1.250000
v 3.000000 2.500000 1.250000
v 3.000000 1.000000 1.250000
v 3.000000 2.500000 1.750000
v 3.000000 1.000000 1.750000
v 2.625000 1.500000 1.250000
v 2.625000 1.000000 1.250000
v 2.625000 1.500000 0.750000
v 2.625000 1.000000 0.500000
v 2.875000 1.500000 0.750000
v 2.875000 1.000000 0.500000
v 2.875000 1.500000 1.250000
v 2.875000 1.000000 1.250000
v 2.875000 1.250000 0.500000
v 2.875000 1.250000 1.250000
v 2.625000 1.250000 0.500000
v 2.375000 1.937500 0.375000
v 2.375000 1.625000 0.375000
v 2.625000 1.937500 0.375000
v 2.375000 1.250000 1.062500
v 2.375000 1.250000 0.750000
v 2.625000 1.250000 1.062500
v 2.625000 1.250000 0.750000
v 2.625000 1.250000 0.437500
v 2.625000 1.625000 0.375000
v 2.625000 1.625000 0.062500
v 2.375000 1.625000 0.062500
v 2.375000 1.250000 0.437500
v 2.312500 2.000000 0.000000
v 2.312500 2.000000 0.375000
v 2.687500 2.000000 0.000000
v 2.312500 1.625000 0.000000
v 2.312500 1.625000 0.375000
v 2.687500 1.625000 0.000000
v 2.687500 1.625000 0.375000
v 2.687500 2.000000 0.375000
v 2.625000 1.500000 2.500000
v 2.625000 1.250000 2.750000
v 2.875000 1.250000 2.750000
v 2.875000 1.500000 2.500000
v 2.625000 1.250000 1.250000
vt 0.953125 0.984375
vt 0.953125 1.000000
vt 0.906250 1.000000
vt 0.906250 0.984375
vt 0.804688 0.851562
vt 0.835938 0.851562
vt 0.835938 0.945312
vt 0.804688 0.945312
vt 0.890625 0.953125
vt 0.843750 0.953125
vt 0.843750 0.984375
vt 0.890625 0.984375
vt 0.890625 0.953125
vt 0.906250 0.953125
vt 0.906250 0.968750
vt 0.890625 0.984375
vt 1.000000 0.960938
vt 1.000000 1.000000
vt 0.984375 1.000000
vt 0.984375 0.960938
vt 1.000000 0.859375
vt 1.000000 0.898438
vt 0.984375 0.898438
vt 0.984375 0.859375
vt 0.945312 0.960938
vt 0.945312 0.898438
vt 0.750000 0.851562
vt 0.781250 0.851562
vt 0.781250 0.945312
vt 0.750000 0.945312
vt 0.859375 0.851562
vt 0.859375 0.945312
vt 0.835938 0.968750
vt 0.804688 0.968750
vt 0.843750 1.000000
vt 0.843750 0.984375
vt 0.859375 0.984375
vt 0.859375 1.000000
vt 0.796875 0.984375
vt 0.843750 0.984375
vt 0.843750 1.000000
vt 0.812500 1.000000
vt 0.796875 0.968750
vt 0.843750 0.968750
vt 0.906250 0.984375
vt 0.906250 1.000000
vt 0.875000 1.000000
vt 0.875000 0.984375
vt 0.980469 0.816406
vt 0.957031 0.839844
vt 0.957031 0.859375
vt 1.000000 0.816406
vt 0.941406 0.890625
vt 0.941406 0.875000
vt 0.984375 0.875000
vt 0.984375 0.890625
vt 1.000000 0.816406
vt 0.957031 0.859375
vt 0.957031 0.839844
vt 0.980469 0.816406
vt 0.937500 0.839844
vt 0.960938 0.816406
vt 0.960938 0.859375
vt 0.984375 0.859375
vt 0.984375 0.875000
vt 0.960938 0.875000
vt 0.937500 0.839844
vt 0.960938 0.816406
vt 0.859375 0.851562
vt 0.882812 0.851562
vt 0.882812 0.875000
vt 0.859375 0.875000
vt 0.906250 0.898438
vt 0.882812 0.898438
vt 0.906250 0.875000
vt 0.906250 0.851562
vt 0.929688 0.851562
vt 0.929688 0.875000
vt 0.906250 0.921875
vt 0.882812 0.921875
vt 0.906250 0.945312
vt 0.882812 0.945312
vt 0.968750 0.984375
vt 0.968750 1.000000
vt 0.984375 0.984375
vt 0.984375 1.000000
vt 0.843750 0.953125
vt 0.843750 0.984375
vt 0.906250 0.953125
vt 0.906250 0.968750
vt 0.796875 0.984375
vt 0.812500 1.000000
vt 0.843750 1.000000
vt 0.843750 0.984375
vt 0.796875 0.968750
vt 0.843750 0.968750
vt 0.953125 0.984375
vt 0.906250 0.984375
vt 0.906250 1.000000
vt 0.953125 1.000000
vt 0.804688 0.851562
vt 0.804688 0.945312
vt 0.835938 0.945312
vt 0.835938 0.851562
vt 0.890625 0.953125
vt 0.890625 0.984375
vt 0.843750 0.984375
vt 0.843750 0.953125
vt 0.890625 0.953125
vt 0.890625 0.984375
vt 0.906250 0.968750
vt 0.906250 0.953125
vt 1.000000 0.960938
vt 0.984375 0.960938
vt 0.984375 1.000000
vt 1.000000 1.000000
vt 1.000000 0.859375
vt 0.984375 0.859375
vt 0.984375 0.898438
vt 1.000000 0.898438
vt 0.945312 0.960938
vt 0.945312 0.898438
vt 0.750000 0.851562
vt 0.750000 0.945312
vt 0.781250 0.945312
vt 0.781250 0.851562
vt 0.859375 0.945312
vt 0.859375 0.851562
vt 0.804688 0.968750
vt 0.835938 0.968750
vt 0.843750 1.000000
vt 0.859375 1.000000
vt 0.859375 0.984375
vt 0.843750 0.984375
vt 0.796875 0.984375
vt 0.812500 1.000000
vt 0.843750 1.000000
vt 0.843750 0.984375
vt 0.796875 0.968750
vt 0.843750 0.968750
vt 0.906250 0.984375
vt 0.875000 0.984375
vt 0.875000 1.000000
vt 0.906250 1.000000
vt 0.980469 0.816406
vt 1.000000 0.816406
vt 0.957031 0.859375
vt 0.957031 0.839844
vt 0.941406 0.890625
vt 0.984375 0.890625
vt 0.984375 0.875000
vt 0.941406 0.875000
vt 1.000000 0.816406
vt 0.980469 0.816406
vt 0.957031 0.839844
vt 0.957031 0.859375
vt 0.960938 0.816406
vt 0.937500 0.839844
vt 0.960938 0.859375
vt 0.960938 0.875000
vt 0.984375 0.875000
vt 0.984375 0.859375
vt 0.937500 0.839844
vt 0.960938 0.816406
vt 0.859375 0.851562
vt 0.859375 0.875000
vt 0.882812 0.875000
vt 0.882812 0.851562
vt 0.906250 0.898438
vt 0.906250 0.875000
vt 0.882812 0.898438
vt 0.906250 0.851562
vt 0.929688 0.875000
vt 0.929688 0.851562
vt 0.906250 0.921875
vt 0.882812 0.921875
vt 0.882812 0.945312
vt 0.906250 0.945312
vt 0.968750 1.000000
vt 0.968750 0.984375
vt 0.984375 0.984375
vt 0.984375 1.000000
vt 0.843750 0.953125
vt 0.843750 0.984375
vt 0.906250 0.953125
vt 0.906250 0.968750
vt 0.796875 0.984375
vt 0.843750 0.984375
vt 0.843750 1.000000
vt 0.812500 1.000000
vt 0.796875 0.968750
vt 0.843750 0.968750
vn 0.0000 1.0000 0.0000
vn -1.0000 0.0000 0.0000
vn 1.0000 0.0000 0.0000
vn 0.0000 -0.0000 1.0000
vn 0.0000 0.0000 -1.0000
vn 0.0000 0.7071 -0.7071
vn 0.0000 0.7071 0.7071
vn 0.0000 -0.7071 -0.7071
vn 0.0000 -1.0000 -0.0000
usemtl cm
s off
f 59/1/1 56/2/1 3/3/1 5/4/1
f 22/5/2 24/6/2 23/7/2 21/8/2
f 7/9/3 4/10/3 3/11/3 56/12/3
f 1/13/2 8/14/2 58/15/2 59/16/2
f 16/17/4 10/18/4 9/19/4 15/20/4
f 12/21/5 14/22/5 13/23/5 11/24/5
f 14/22/2 16/17/2 15/20/2 13/23/2
f 9/25/1 11/26/1 13/23/1 15/20/1
f 18/27/3 20/28/3 19/29/3 17/30/3
f 24/6/4 18/31/4 17/32/4 23/7/4
f 20/28/5 22/5/5 21/8/5 19/29/5
f 23/7/1 17/33/1 19/34/1 21/8/1
f 28/35/5 30/36/5 33/37/5 35/38/5
f 33/39/2 34/40/2 31/41/2 29/42/2
f 30/43/2 32/44/2 34/40/2 33/39/2
f 31/45/1 25/46/1 27/47/1 29/48/1
f 35/38/6 33/37/6 29/48/6 27/47/6
f 40/49/3 37/50/3 36/51/3 39/52/3
f 36/53/7 38/54/7 41/55/7 39/56/7
f 41/57/2 38/58/2 44/59/2 42/60/2
f 42/60/2 44/59/2 45/61/2 43/62/2
f 43/63/8 45/64/8 46/65/8 47/66/8
f 46/67/3 37/50/3 40/49/3 47/68/3
f 52/69/3 51/70/3 48/71/3 49/72/3
f 55/73/1 49/74/1 48/71/1 50/75/1
f 51/70/5 53/76/5 50/75/5 48/71/5
f 53/76/2 54/77/2 55/78/2 50/75/2
f 54/79/4 52/80/4 49/74/4 55/73/4
f 52/80/9 54/79/9 53/81/9 51/82/9
f 56/2/7 59/1/7 58/83/7 57/84/7
f 8/85/4 2/86/4 57/84/4 58/83/4
f 6/87/2 1/13/2 59/16/2 5/88/2
f 2/89/3 7/9/3 56/12/3 57/90/3
f 35/91/3 27/92/3 25/93/3 60/94/3
f 28/95/3 35/91/3 60/94/3 26/96/3
f 119/97/1 65/98/1 63/99/1 116/100/1
f 82/101/3 81/102/3 83/103/3 84/104/3
f 67/105/2 116/106/2 63/107/2 64/108/2
f 61/109/3 119/110/3 118/111/3 68/112/3
f 76/113/4 75/114/4 69/115/4 70/116/4
f 72/117/5 71/118/5 73/119/5 74/120/5
f 74/120/3 73/119/3 75/114/3 76/113/3
f 69/121/1 75/114/1 73/119/1 71/122/1
f 78/123/2 77/124/2 79/125/2 80/126/2
f 84/104/4 83/103/4 77/127/4 78/128/4
f 80/126/5 79/125/5 81/102/5 82/101/5
f 83/103/1 81/102/1 79/129/1 77/130/1
f 88/131/5 95/132/5 93/133/5 90/134/5
f 93/135/3 89/136/3 91/137/3 94/138/3
f 90/139/3 93/135/3 94/138/3 92/140/3
f 91/141/1 89/142/1 87/143/1 85/144/1
f 95/132/6 87/143/6 89/142/6 93/133/6
f 100/145/2 99/146/2 96/147/2 97/148/2
f 96/149/7 99/150/7 101/151/7 98/152/7
f 101/153/3 102/154/3 104/155/3 98/156/3
f 102/154/3 103/157/3 105/158/3 104/155/3
f 103/159/8 107/160/8 106/161/8 105/162/8
f 106/163/2 107/164/2 100/145/2 97/148/2
f 112/165/2 109/166/2 108/167/2 111/168/2
f 115/169/1 110/170/1 108/167/1 109/171/1
f 111/168/5 108/167/5 110/170/5 113/172/5
f 113/172/3 110/170/3 115/173/3 114/174/3
f 114/175/4 115/169/4 109/171/4 112/176/4
f 112/176/9 111/177/9 113/178/9 114/175/9
f 116/100/7 117/179/7 118/180/7 119/97/7
f 68/181/4 118/180/4 117/179/4 62/182/4
f 66/183/3 65/184/3 119/110/3 61/109/3
f 62/185/2 117/186/2 116/106/2 67/105/2
f 95/187/2 120/188/2 85/189/2 87/190/2
f 88/191/2 86/192/2 120/188/2 95/187/2
o cube.050
v 2.000000 1.437500 1.125000
v 2.000000 1.000000 1.125000
v 2.000000 1.437500 0.125000
v 2.000000 1.000000 0.125000
v 1.000000 1.437500 0.125000
v 1.000000 1.000000 0.125000
v 1.000000 1.437500 1.125000
v 1.000000 1.000000 1.125000
v 2.000000 1.625000 1.125000
v 2.000000 1.437500 1.125000
v 2.000000 1.625000 0.125000
v 2.000000 1.437500 0.125000
v 1.625000 1.625000 0.125000
v 1.625000 1.437500 0.125000
v 1.625000 1.625000 1.125000
v 1.625000 1.437500 1.125000
v 1.375000 1.625000 1.125000
v 1.375000 1.437500 1.125000
v 1.375000 1.625000 0.125000
v 1.375000 1.437500 0.125000
v 1.000000 1.625000 0.125000
v 1.000000 1.437500 0.125000
v 1.000000 1.625000 1.125000
v 1.000000 1.437500 1.125000
v 1.625000 1.625000 1.125000
v 1.625000 1.437500 1.125000
v 1.625000 1.625000 0.750000
v 1.625000 1.437500 0.750000
v 1.375000 1.625000 0.750000
v 1.375000 1.437500 0.750000
v 1.375000 1.625000 1.125000
v 1.375000 1.437500 1.125000
v 1.625000 1.625000 0.500000
v 1.625000 1.437500 0.500000
v 1.625000 1.625000 0.125000
v 1.625000 1.437500 0.125000
v 1.375000 1.625000 0.125000
v 1.375000 1.437500 0.125000
v 1.375000 1.625000 0.500000
v 1.375000 1.437500 0.500000
vt 0.750000 0.839844
vt 0.812500 0.839844
vt 0.812500 0.851562
vt 0.750000 0.851562
vt 0.750000 0.839844
vt 0.812500 0.839844
vt 0.812500 0.851562
vt 0.750000 0.851562
vt 0.789062 0.839844
vt 0.812500 0.839844
vt 0.812500 0.851562
vt 0.789062 0.851562
vt 0.000000 0.218750
vt 0.187500 0.218750
vt 0.187500 0.312500
vt 0.000000 0.312500
vt 0.835938 0.851562
vt 0.812500 0.789062
vt 0.835938 0.789062
vt 0.750000 0.839844
vt 0.773438 0.839844
vt 0.773438 0.851562
vt 0.750000 0.851562
vt 0.312500 0.218750
vt 0.500000 0.218750
vt 0.500000 0.312500
vt 0.312500 0.312500
vt 0.875000 0.851562
vt 0.851562 0.851562
vt 0.851562 0.789062
vt 0.875000 0.789062
vt 0.773438 0.839844
vt 0.789062 0.839844
vt 0.789062 0.851562
vt 0.773438 0.851562
vt 0.875000 0.839844
vt 0.890625 0.839844
vt 0.890625 0.851562
vt 0.875000 0.851562
vt 0.851562 0.851562
vt 0.835938 0.851562
vt 0.835938 0.828125
vt 0.851562 0.828125
vt 0.875000 0.839844
vt 0.890625 0.839844
vt 0.890625 0.851562
vt 0.875000 0.851562
vt 0.187500 0.218750
vt 0.312500 0.218750
vt 0.312500 0.312500
vt 0.187500 0.312500
vt 0.851562 0.812500
vt 0.835938 0.812500
vt 0.835938 0.789062
vt 0.851562 0.789062
vt 0.875000 0.839844
vt 0.890625 0.839844
vt 0.890625 0.851562
vt 0.875000 0.851562
vt 0.851562 0.828125
vt 0.835938 0.828125
vt 0.835938 0.812500
vt 0.851562 0.812500
vt 0.750000 0.812500
vt 0.812500 0.812500
vt 0.812500 0.839844
vt 0.750000 0.839844
vt 0.750000 0.812500
vt 0.812500 0.812500
vt 0.812500 0.839844
vt 0.750000 0.839844
vt -0.000000 -0.000000
vt 0.500000 -0.000000
vt 0.500000 0.218750
vt -0.000000 0.218750
vt 0.750000 0.812500
vt 0.812500 0.812500
vt 0.812500 0.839844
vt 0.750000 0.839844
vn 1.0000 0.0000 0.0000
vn -1.0000 -0.0000 0.0000
vn 0.0000 0.0000 1.0000
vn 0.0000 0.0000 -1.0000
vn 0.0000 1.0000 0.0000
usemtl cm
s off
f 130/193/10 132/194/10 131/195/10 129/196/10
f 142/197/11 144/198/11 143/199/11 141/200/11
f 136/201/12 130/202/12 129/203/12 135/204/12
f 132/205/13 134/206/13 133/207/13 131/208/13
f 135/209/14 129/203/14 131/210/14 133/211/14
f 144/212/12 138/213/12 137/214/12 143/215/12
f 140/216/13 142/217/13 141/218/13 139/219/13
f 143/220/14 137/221/14 139/222/14 141/223/14
f 152/224/12 146/225/12 145/226/12 151/227/12
f 148/228/13 150/229/13 149/230/13 147/231/13
f 151/232/14 145/233/14 147/234/14 149/235/14
f 160/236/12 154/237/12 153/238/12 159/239/12
f 156/240/13 158/241/13 157/242/13 155/243/13
f 159/244/14 153/245/14 155/246/14 157/247/14
f 148/228/11 147/231/11 153/238/11 154/237/11
f 150/248/10 160/249/10 159/250/10 149/251/10
f 150/252/14 148/253/14 154/254/14 160/255/14
s 1
f 126/256/11 128/257/11 127/258/11 125/259/11
f 128/260/12 122/261/12 121/262/12 127/263/12
f 124/264/13 126/265/13 125/266/13 123/267/13
f 122/268/10 124/269/10 123/270/10 121/271/10
o cube.base_cube.059
v 2.812500 0.187500 1.187500
v 2.812500 0.187500 1.812500
v 3.000000 0.187500 1.812500
v 3.000000 0.187500 1.187500
v 1.250000 0.750000 0.000000
v 1.250000 0.750000 0.187500
v 1.750000 0.750000 0.187500
v 1.750000 0.750000 0.000000
v 3.000000 1.000000 3.000000
v 3.000000 -0.000000 3.000000
v 3.000000 -0.000000 1.812500
v 3.000000 1.000000 1.812500
v 2.812500 0.812500 1.812500
v 2.812500 0.812500 1.187500
v 3.000000 0.812500 1.187500
v 3.000000 0.812500 1.812500
v 1.187500 1.000000 0.000000
v 1.187500 0.000000 0.000000
v 0.000000 0.000000 0.000000
v 0.000000 1.000000 0.000000
v 1.250000 0.250000 0.187500
v 1.250000 0.250000 0.000000
v 1.750000 0.250000 0.000000
v 1.750000 0.250000 0.187500
v 3.000000 0.000000 0.000000
v 1.812500 0.000000 0.000000
v 1.812500 1.000000 0.000000
v 3.000000 1.000000 0.000000
v 3.000000 1.000000 1.187500
v 3.000000 -0.000000 1.187500
v 2.812500 0.312500 1.687500
v 2.812500 0.312500 1.312500
v 3.000000 0.312500 1.312500
v 3.000000 0.312500 1.687500
v 2.812500 0.687500 1.687500
v 3.000000 0.687500 1.687500
v 3.000000 0.687500 1.312500
v 2.812500 0.687500 1.312500
v 0.000000 -0.000000 1.187500
v 0.000000 1.000000 1.187500
v 0.000000 0.812500 1.812500
v 0.000000 0.812500 1.187500
v 0.187500 0.812500 1.187500
v 0.187500 0.812500 1.812500
v 0.000000 1.000000 1.812500
v 0.000000 -0.000000 1.812500
v 0.000000 -0.000000 3.000000
v 0.000000 1.000000 3.000000
v 1.812500 1.000000 3.000000
v 1.812500 -0.000000 3.000000
v 0.000000 0.187500 1.187500
v 0.000000 0.187500 1.812500
v 0.187500 0.187500 1.812500
v 0.187500 0.187500 1.187500
v 0.000000 0.312500 1.687500
v 0.000000 0.312500 1.312500
v 0.187500 0.312500 1.312500
v 0.187500 0.312500 1.687500
v 0.000000 0.687500 1.312500
v 0.000000 0.687500 1.687500
v 0.187500 0.687500 1.687500
v 0.187500 0.687500 1.312500
v 1.187500 0.812500 3.000000
v 1.187500 0.812500 2.812500
v 1.812500 0.812500 2.812500
v 1.812500 0.812500 3.000000
v 1.187500 1.000000 3.000000
v 1.187500 0.187500 3.000000
v 1.187500 -0.000000 3.000000
v 1.812500 0.187500 3.000000
v 1.187500 0.187500 2.812500
v 1.812500 0.187500 2.812500
v 1.250000 0.250000 3.000000
v 1.250000 0.250000 2.812500
v 1.750000 0.250000 2.812500
v 1.750000 0.250000 3.000000
v 1.250000 0.750000 2.812500
v 1.250000 0.750000 3.000000
v 1.750000 0.750000 3.000000
v 1.750000 0.750000 2.812500
v 1.812500 0.187500 0.000000
v 1.187500 0.187500 0.000000
v 1.187500 0.187500 0.187500
v 1.812500 0.187500 0.187500
v 1.187500 0.812500 0.187500
v 1.187500 0.812500 0.000000
v 1.812500 0.812500 0.000000
v 1.812500 0.812500 0.187500
vt 0.785156 1.000000
vt 0.785156 0.960938
vt 0.796875 0.960938
vt 0.796875 1.000000
vt 0.929688 0.984375
vt 0.929688 0.972656
vt 0.960938 0.972656
vt 0.960938 0.984375
vt 0.562500 1.000000
vt 0.562500 0.937500
vt 0.636719 0.937500
vt 0.636719 1.000000
vt 0.773438 1.000000
vt 0.773438 0.960938
vt 0.785156 0.960938
vt 0.785156 1.000000
vt 0.488281 0.937500
vt 0.488281 0.875000
vt 0.562500 0.875000
vt 0.562500 0.937500
vt 0.960938 0.972656
vt 0.960938 0.984375
vt 0.929688 0.984375
vt 0.929688 0.972656
vt 0.375000 0.875000
vt 0.449219 0.875000
vt 0.449219 0.937500
vt 0.375000 0.937500
vt 0.675781 1.000000
vt 0.675781 0.937500
vt 0.750000 0.937500
vt 0.750000 1.000000
vt 0.929688 0.972656
vt 0.960938 0.972656
vt 0.960938 0.984375
vt 0.929688 0.984375
vt 0.636719 0.988281
vt 0.675781 0.988281
vt 0.929688 0.972656
vt 0.960938 0.972656
vt 0.960938 0.984375
vt 0.929688 0.984375
vt 0.636719 0.949219
vt 0.675781 0.949219
vt 0.906250 0.972656
vt 0.929688 0.972656
vt 0.929688 0.984375
vt 0.906250 0.984375
vt 0.906250 0.972656
vt 0.929688 0.972656
vt 0.929688 0.984375
vt 0.906250 0.984375
vt 0.906250 0.972656
vt 0.929688 0.972656
vt 0.929688 0.984375
vt 0.906250 0.984375
vt 0.906250 0.972656
vt 0.929688 0.972656
vt 0.929688 0.984375
vt 0.906250 0.984375
vt 0.644531 0.980469
vt 0.644531 0.957031
vt 0.667969 0.957031
vt 0.667969 0.980469
vt 0.636719 0.875000
vt 0.636719 0.937500
vt 0.773438 1.000000
vt 0.773438 0.960938
vt 0.785156 0.960938
vt 0.785156 1.000000
vt 0.636719 0.925781
vt 0.675781 0.925781
vt 0.675781 0.937500
vt 0.675781 0.875000
vt 0.750000 0.875000
vt 0.750000 0.937500
vt 0.488281 1.000000
vt 0.488281 0.937500
vt 0.636719 0.886719
vt 0.675781 0.886719
vt 0.785156 1.000000
vt 0.785156 0.960938
vt 0.796875 0.960938
vt 0.796875 1.000000
vt 0.906250 0.972656
vt 0.929688 0.972656
vt 0.929688 0.984375
vt 0.906250 0.984375
vt 0.644531 0.917969
vt 0.644531 0.894531
vt 0.667969 0.894531
vt 0.667969 0.917969
vt 0.906250 0.972656
vt 0.929688 0.972656
vt 0.929688 0.984375
vt 0.906250 0.984375
vt 0.906250 0.972656
vt 0.929688 0.972656
vt 0.929688 0.984375
vt 0.906250 0.984375
vt 0.906250 0.972656
vt 0.929688 0.972656
vt 0.929688 0.984375
vt 0.906250 0.984375
vt 0.773438 0.960938
vt 0.785156 0.960938
vt 0.785156 1.000000
vt 0.773438 1.000000
vt 0.449219 1.000000
vt 0.449219 0.988281
vt 0.488281 0.988281
vt 0.449219 0.949219
vt 0.449219 0.937500
vt 0.488281 0.949219
vt 0.785156 0.960938
vt 0.796875 0.960938
vt 0.796875 1.000000
vt 0.785156 1.000000
vt 0.929688 0.984375
vt 0.929688 0.972656
vt 0.960938 0.972656
vt 0.960938 0.984375
vt 0.929688 0.972656
vt 0.960938 0.972656
vt 0.960938 0.984375
vt 0.929688 0.984375
vt 0.453125 0.984375
vt 0.453125 0.953125
vt 0.484375 0.953125
vt 0.484375 0.984375
vt 0.929688 0.984375
vt 0.929688 0.972656
vt 0.960938 0.972656
vt 0.960938 0.984375
vt 0.929688 0.972656
vt 0.960938 0.972656
vt 0.960938 0.984375
vt 0.929688 0.984375
vt 0.449219 0.886719
vt 0.488281 0.886719
vt 0.785156 0.960938
vt 0.796875 0.960938
vt 0.796875 1.000000
vt 0.785156 1.000000
vt 0.773438 0.960938
vt 0.785156 0.960938
vt 0.785156 1.000000
vt 0.773438 1.000000
vt 0.449219 0.925781
vt 0.488281 0.925781
vt 0.773438 1.000000
vt 0.761719 1.000000
vt 0.761719 0.960938
vt 0.773438 0.960938
vt 0.761719 0.960938
vt 0.761719 1.000000
vt 0.750000 1.000000
vt 0.750000 0.960938
vt 0.675781 0.988281
vt 0.636719 0.988281
vt 0.636719 0.949219
vt 0.675781 0.949219
vt 0.761719 1.000000
vt 0.761719 0.960938
vt 0.773438 0.960938
vt 0.773438 1.000000
vt 0.750000 1.000000
vt 0.750000 0.960938
vt 0.761719 0.960938
vt 0.761719 1.000000
vt 0.449219 0.886719
vt 0.488281 0.886719
vt 0.488281 0.925781
vt 0.449219 0.925781
vt 0.761719 1.000000
vt 0.750000 1.000000
vt 0.750000 0.960938
vt 0.761719 0.960938
vt 0.761719 1.000000
vt 0.761719 0.960938
vt 0.773438 0.960938
vt 0.488281 0.988281
vt 0.449219 0.988281
vt 0.449219 0.949219
vt 0.488281 0.949219
vt 0.773438 0.960938
vt 0.761719 1.000000
vt 0.761719 0.960938
vt 0.761719 1.000000
vt 0.750000 1.000000
vt 0.750000 0.960938
vt 0.761719 0.960938
vt 0.675781 0.925781
vt 0.636719 0.925781
vt 0.636719 0.886719
vt 0.675781 0.886719
vt 0.187500 0.812500
vt 0.187500 1.000000
vt 0.000000 1.000000
vt 0.000000 0.812500
vt 0.375000 0.812500
vt 0.375000 1.000000
vt 0.187500 1.000000
vt 0.187500 0.812500
vt 0.375000 1.000000
vt 0.375000 0.937500
vt 0.453125 0.921875
vt 0.453125 0.890625
vt 0.484375 0.890625
vt 0.484375 0.921875
vn 0.0000 1.0000 0.0000
vn 1.0000 -0.0000 0.0000
vn 0.0000 -1.0000 -0.0000
vn 0.0000 0.0000 -1.0000
vn -1.0000 0.0000 0.0000
vn 0.0000 -0.0000 1.0000
usemtl cm
s 1
f 161/272/15 162/273/15 163/274/15 164/275/15
f 165/276/15 166/277/15 167/278/15 168/279/15
f 169/280/16 170/281/16 171/282/16 172/283/16
f 173/284/17 174/285/17 175/286/17 176/287/17
f 177/288/18 178/289/18 179/290/18 180/291/18
f 181/292/17 182/293/17 183/294/17 184/295/17
f 185/296/18 186/297/18 187/298/18 188/299/18
f 189/300/16 190/301/16 185/302/16 188/303/16
f 167/304/16 184/305/16 183/306/16 168/307/16
f 172/283/16 176/308/16 175/309/16 189/300/16
f 165/310/19 182/311/19 181/312/19 166/313/19
f 163/314/16 171/282/16 190/301/16 164/315/16
f 191/316/17 192/317/17 193/318/17 194/319/17
f 195/320/20 191/321/20 194/322/20 196/323/20
f 197/324/18 193/325/18 192/326/18 198/327/18
f 198/328/15 195/329/15 196/330/15 197/331/15
f 196/332/16 194/333/16 193/334/16 197/335/16
f 180/291/19 179/290/19 199/336/19 200/337/19
f 201/338/17 202/339/17 203/340/17 204/341/17
f 200/337/19 202/342/19 201/343/19 205/344/19
f 205/344/19 206/345/19 207/346/19 208/347/19
f 209/348/20 210/349/20 170/281/20 169/280/20
f 211/350/19 199/336/19 206/345/19 212/351/19
f 211/352/15 212/353/15 213/354/15 214/355/15
f 215/356/17 216/357/17 217/358/17 218/359/17
f 219/360/19 216/361/19 215/362/19 220/363/19
f 220/364/20 215/365/20 218/366/20 221/367/20
f 222/368/18 217/369/18 216/370/18 219/371/18
f 219/372/15 220/373/15 221/374/15 222/375/15
f 223/376/17 224/377/17 225/378/17 226/379/17
f 227/380/20 223/381/20 226/382/20 209/348/20
f 228/383/20 229/384/20 210/349/20 230/385/20
f 231/386/15 228/387/15 230/388/15 232/389/15
f 233/390/17 234/391/17 235/392/17 236/393/17
f 237/394/19 234/395/19 233/396/19 238/397/19
f 238/398/20 233/399/20 236/400/20 239/401/20
f 237/402/15 238/403/15 239/404/15 240/405/15
f 239/406/16 236/407/16 235/408/16 240/409/16
f 241/410/18 186/297/18 178/289/18 242/411/18
f 242/412/15 243/413/15 244/414/15 241/415/15
f 245/416/17 246/417/17 247/418/17 248/419/17
f 187/298/18 247/420/18 246/421/18 177/288/18
f 175/422/20 174/423/20 161/424/20 164/425/20
f 162/426/18 173/427/18 176/428/18 163/429/18
f 174/430/16 173/431/16 162/432/16 161/433/16
f 245/434/16 243/435/16 242/436/16 246/437/16
f 247/438/19 241/439/19 244/440/19 248/441/19
f 244/442/18 243/443/18 245/444/18 248/445/18
f 224/446/16 223/447/16 228/448/16 231/449/16
f 226/379/19 225/450/19 232/451/19 230/452/19
f 225/453/20 224/454/20 231/455/20 232/456/20
f 212/457/18 201/338/18 204/458/18 213/459/18
f 203/460/20 202/461/20 211/462/20 214/463/20
f 204/464/19 203/465/19 214/466/19 213/467/19
f 208/468/15 169/469/15 188/470/15 180/471/15
f 207/472/15 170/473/15 185/474/15 179/475/15
f 208/476/20 207/477/20 229/384/20 227/380/20
f 168/478/18 183/479/18 182/480/18 165/481/18
