# Blender v2.91.0 OBJ File: 'cating_machine.blend'
# made by hqyzsy
mtllib cating_machine_1.mtl
o cube.038
v 1.625000 2.375000 2.500000
v 1.625000 2.125000 2.500000
v 1.375000 2.375000 2.500000
v 1.375000 2.125000 2.500000
v 1.375000 2.375000 2.625000
v 1.375000 2.125000 2.625000
v 1.625000 2.375000 2.625000
v 1.625000 2.125000 2.625000
v 2.500000 1.625000 2.312500
v 2.500000 1.250000 2.312500
v 1.187500 1.625000 2.312500
v 1.187500 1.250000 2.312500
v 1.187500 1.625000 2.437500
v 1.187500 1.250000 2.437500
v 2.500000 1.625000 2.437500
v 2.500000 1.250000 2.437500
v 1.687500 2.562500 2.250000
v 1.687500 1.187500 2.250000
v 1.312500 2.562500 2.250000
v 1.312500 1.187500 2.250000
v 1.312500 2.562500 2.500000
v 1.312500 1.187500 2.500000
v 1.687500 2.562500 2.500000
v 1.687500 1.187500 2.500000
v 2.687500 1.375000 2.312500
v 2.687500 1.250000 2.312500
v 2.500000 1.375000 2.312500
v 2.500000 1.250000 2.312500
v 2.500000 1.375000 2.437500
v 2.500000 1.250000 2.437500
v 2.687500 1.375000 2.437500
v 2.687500 1.250000 2.437500
v 2.812500 1.687500 2.312500
v 2.812500 1.250000 2.312500
v 2.687500 1.687500 2.312500
v 2.687500 1.250000 2.312500
v 2.687500 1.687500 2.437500
v 2.687500 1.250000 2.437500
v 2.812500 1.687500 2.437500
v 2.812500 1.250000 2.437500
v 2.687500 1.562500 2.250000
v 2.687500 1.375000 2.250000
v 2.500000 1.562500 2.250000
v 2.500000 1.375000 2.250000
v 2.500000 1.562500 2.500000
v 2.500000 1.375000 2.500000
v 2.687500 1.562500 2.500000
v 2.687500 1.375000 2.500000
v 1.625000 2.375000 0.500000
v 1.625000 2.125000 0.500000
v 1.375000 2.375000 0.500000
v 1.375000 2.125000 0.500000
v 1.375000 2.375000 0.375000
v 1.375000 2.125000 0.375000
v 1.625000 2.375000 0.375000
v 1.625000 2.125000 0.375000
v 2.500000 1.625000 0.687500
v 2.500000 1.250000 0.687500
v 1.187500 1.625000 0.687500
v 1.187500 1.250000 0.687500
v 1.187500 1.625000 0.562500
v 1.187500 1.250000 0.562500
v 2.500000 1.625000 0.562500
v 2.500000 1.250000 0.562500
v 1.687500 2.562500 0.750000
v 1.687500 1.187500 0.750000
v 1.312500 2.562500 0.750000
v 1.312500 1.187500 0.750000
v 1.312500 2.562500 0.500000
v 1.312500 1.187500 0.500000
v 1.687500 2.562500 0.500000
v 1.687500 1.187500 0.500000
v 2.687500 1.375000 0.687500
v 2.687500 1.250000 0.687500
v 2.500000 1.375000 0.687500
v 2.500000 1.250000 0.687500
v 2.500000 1.375000 0.562500
v 2.500000 1.250000 0.562500
v 2.687500 1.375000 0.562500
v 2.687500 1.250000 0.562500
v 2.812500 1.687500 0.687500
v 2.812500 1.250000 0.687500
v 2.687500 1.687500 0.687500
v 2.687500 1.250000 0.687500
v 2.687500 1.687500 0.562500
v 2.687500 1.250000 0.562500
v 2.812500 1.687500 0.562500
v 2.812500 1.250000 0.562500
v 2.687500 1.562500 0.750000
v 2.687500 1.375000 0.750000
v 2.500000 1.562500 0.750000
v 2.500000 1.375000 0.750000
v 2.500000 1.562500 0.500000
v 2.500000 1.375000 0.500000
v 2.687500 1.562500 0.500000
v 2.687500 1.375000 0.500000
v 2.750000 2.875000 0.750000
v 2.750000 2.687500 0.750000
v 1.250000 2.875000 0.750000
v 1.250000 2.687500 0.750000
v 1.250000 2.875000 2.250000
v 1.250000 2.687500 2.250000
v 2.750000 2.875000 2.250000
v 2.750000 2.687500 2.250000
v 2.750000 2.625000 0.750000
v 2.750000 1.125000 0.750000
v 1.250000 2.625000 0.750000
v 1.250000 1.125000 0.750000
v 1.250000 2.625000 2.250000
v 1.250000 1.125000 2.250000
v 2.750000 2.625000 2.250000
v 2.750000 1.125000 2.250000
v 2.687500 2.687500 0.812500
v 2.687500 2.625000 0.812500
v 1.312500 2.687500 0.812500
v 1.312500 2.625000 0.812500
v 1.312500 2.687500 2.187500
v 1.312500 2.625000 2.187500
v 2.687500 2.687500 2.187500
v 2.687500 2.625000 2.187500
v 0.770587 2.447420 1.375000
v 0.698834 2.274193 1.375000
v 0.539618 2.543091 1.375000
v 0.467864 2.369864 1.375000
v 0.539618 2.543091 1.625000
v 0.467864 2.369864 1.625000
v 0.770587 2.447420 1.625000
v 0.698834 2.274193 1.625000
v 1.312500 2.437500 1.250000
v 0.437500 2.437500 1.250000
v 0.437500 2.437500 1.750000
v 1.312500 2.437500 1.750000
v 1.312500 2.687500 1.250000
v 0.437500 2.625000 1.250000
v 0.437500 2.625000 1.750000
v 1.312500 2.687500 1.750000
vt 0.468750 0.718750
vt 0.562500 0.718750
vt 0.562500 0.812500
vt 0.468750 0.812500
vt 0.187500 0.800781
vt 0.281250 0.800781
vt 0.281250 0.812500
vt 0.187500 0.812500
vt -0.000000 0.703125
vt 0.093750 0.703125
vt 0.093750 0.796875
vt -0.000000 0.796875
vt 0.089844 0.800781
vt 0.089844 0.812500
vt 0.375000 0.800781
vt 0.375000 0.812500
vt 0.375000 0.718750
vt 0.468750 0.718750
vt 0.468750 0.812500
vt 0.656250 0.718750
vt 0.750000 0.718750
vt 0.750000 0.812500
vt 0.656250 0.812500
vt 0.187500 0.703125
vt 0.281250 0.703125
vt 0.281250 0.796875
vt 0.187500 0.796875
vt 0.003906 0.796875
vt 0.089844 0.796875
vt 0.089844 0.800781
vt 0.003906 0.800781
vt 0.375000 0.703125
vt 0.375000 0.796875
vt 0.562500 0.718750
vt 0.656250 0.718750
vt 0.656250 0.812500
vt 0.562500 0.812500
vt 0.191406 0.796875
vt 0.277344 0.796875
vt 0.277344 0.800781
vt 0.191406 0.800781
vt 0.097656 0.796875
vt 0.183594 0.796875
vt 0.183594 0.800781
vt 0.097656 0.800781
vt 0.285156 0.796875
vt 0.371094 0.796875
vt 0.371094 0.800781
vt 0.285156 0.800781
vt 0.000000 0.800781
vt 0.093750 0.800781
vt 0.093750 0.812500
vt 0.000000 0.812500
vt 0.609375 0.863281
vt 0.625000 0.863281
vt 0.625000 0.875000
vt 0.609375 0.875000
vt 0.695312 0.843750
vt 0.695312 0.875000
vt 0.640625 0.875000
vt 0.640625 0.843750
vt 0.609375 0.863281
vt 0.625000 0.863281
vt 0.625000 0.875000
vt 0.609375 0.875000
vt 0.609375 0.863281
vt 0.625000 0.863281
vt 0.625000 0.875000
vt 0.609375 0.875000
vt 0.695312 0.843750
vt 0.695312 0.875000
vt 0.750000 0.875000
vt 0.750000 0.843750
vt 0.738281 0.851562
vt 0.738281 0.863281
vt 0.707031 0.863281
vt 0.707031 0.851562
vt 0.609375 0.863281
vt 0.625000 0.863281
vt 0.625000 0.875000
vt 0.609375 0.875000
vt 0.695312 0.843750
vt 0.695312 0.828125
vt 0.750000 0.832031
vt 0.750000 0.843750
vt 0.695312 0.843750
vt 0.695312 0.832031
vt 0.750000 0.828125
vt 0.750000 0.843750
vt 0.640625 0.875000
vt 0.625000 0.875000
vt 0.625000 0.859375
vt 0.640625 0.859375
vt 0.937500 0.945312
vt 0.945312 0.945312
vt 0.945312 0.960938
vt 0.937500 0.960938
vt 0.375000 0.847656
vt 0.457031 0.847656
vt 0.457031 0.871094
vt 0.375000 0.871094
vt 0.937500 0.898438
vt 0.945312 0.898438
vt 0.945312 0.914062
vt 0.937500 0.914062
vt 0.937500 0.945312
vt 0.945312 0.945312
vt 0.945312 0.929688
vt 0.937500 0.929688
vt 0.945312 0.929688
vt 0.937500 0.929688
vt 0.375000 0.839844
vt 0.457031 0.839844
vt 0.457031 0.847656
vt 0.375000 0.847656
vt 0.375000 0.871094
vt 0.457031 0.871094
vt 0.960938 0.714844
vt 0.984375 0.714844
vt 0.984375 0.800781
vt 0.960938 0.800781
vt 0.476562 0.847656
vt 0.484375 0.847656
vt 0.484375 0.871094
vt 0.476562 0.871094
vt 0.507812 0.851562
vt 0.515625 0.851562
vt 0.515625 0.875000
vt 0.507812 0.875000
vt 0.457031 0.839844
vt 0.457031 0.847656
vt 0.375000 0.847656
vt 0.375000 0.839844
vt 0.960938 0.699219
vt 0.984375 0.699219
vt 0.457031 0.847656
vt 0.468750 0.847656
vt 0.468750 0.855469
vt 0.457031 0.855469
vt 1.000000 0.714844
vt 1.000000 0.800781
vt 0.945312 0.714844
vt 0.945312 0.800781
vt 0.984375 0.816406
vt 0.960938 0.816406
vt 0.457031 0.839844
vt 0.468750 0.839844
vt 0.468750 0.847656
vt 0.457031 0.847656
vt 0.457031 0.855469
vt 0.468750 0.855469
vt 0.468750 0.847656
vt 0.476562 0.847656
vt 0.476562 0.875000
vt 0.468750 0.875000
vt 0.468750 0.839844
vt 0.476562 0.839844
vt 0.476562 0.847656
vt 0.468750 0.847656
vt 0.468750 0.875000
vt 0.476562 0.875000
vt 0.457031 0.855469
vt 0.468750 0.855469
vt 0.468750 0.867188
vt 0.457031 0.867188
vt 0.484375 0.847656
vt 0.484375 0.875000
vt 0.476562 0.847656
vt 0.484375 0.847656
vt 0.484375 0.875000
vt 0.476562 0.875000
vt 0.476562 0.839844
vt 0.476562 0.847656
vt 0.468750 0.847656
vt 0.468750 0.839844
vt 0.484375 0.863281
vt 0.500000 0.863281
vt 0.500000 0.875000
vt 0.484375 0.875000
vt 0.484375 0.863281
vt 0.500000 0.863281
vt 0.500000 0.875000
vt 0.484375 0.875000
vt 0.484375 0.863281
vt 0.500000 0.863281
vt 0.500000 0.875000
vt 0.484375 0.875000
vt 0.484375 0.863281
vt 0.500000 0.863281
vt 0.500000 0.875000
vt 0.484375 0.875000
vt 0.937500 0.945312
vt 0.937500 0.960938
vt 0.945312 0.960938
vt 0.945312 0.945312
vt 0.375000 0.847656
vt 0.375000 0.871094
vt 0.457031 0.871094
vt 0.457031 0.847656
vt 0.937500 0.898438
vt 0.937500 0.914062
vt 0.945312 0.914062
vt 0.945312 0.898438
vt 0.937500 0.945312
vt 0.937500 0.929688
vt 0.945312 0.929688
vt 0.945312 0.945312
vt 0.937500 0.929688
vt 0.945312 0.929688
vt 0.457031 0.839844
vt 0.375000 0.839844
vt 0.457031 0.847656
vt 0.457031 0.871094
vt 0.375000 0.871094
vt 0.375000 0.847656
vt 0.960938 0.714844
vt 0.960938 0.800781
vt 0.984375 0.800781
vt 0.984375 0.714844
vt 0.476562 0.847656
vt 0.476562 0.871094
vt 0.484375 0.871094
vt 0.484375 0.847656
vt 0.507812 0.851562
vt 0.507812 0.875000
vt 0.515625 0.875000
vt 0.515625 0.851562
vt 0.457031 0.839844
vt 0.375000 0.839844
vt 0.375000 0.847656
vt 0.457031 0.847656
vt 0.984375 0.699219
vt 0.960938 0.699219
vt 0.457031 0.847656
vt 0.457031 0.855469
vt 0.468750 0.855469
vt 0.468750 0.847656
vt 1.000000 0.800781
vt 1.000000 0.714844
vt 0.945312 0.714844
vt 0.945312 0.800781
vt 0.960938 0.816406
vt 0.984375 0.816406
vt 0.468750 0.839844
vt 0.457031 0.839844
vt 0.468750 0.847656
vt 0.468750 0.855469
vt 0.457031 0.855469
vt 0.457031 0.847656
vt 0.468750 0.847656
vt 0.468750 0.875000
vt 0.476562 0.875000
vt 0.476562 0.847656
vt 0.476562 0.839844
vt 0.468750 0.839844
vt 0.476562 0.847656
vt 0.476562 0.875000
vt 0.468750 0.875000
vt 0.468750 0.847656
vt 0.457031 0.855469
vt 0.457031 0.867188
vt 0.468750 0.867188
vt 0.468750 0.855469
vt 0.484375 0.875000
vt 0.484375 0.847656
vt 0.476562 0.847656
vt 0.476562 0.875000
vt 0.484375 0.875000
vt 0.484375 0.847656
vt 0.476562 0.839844
vt 0.468750 0.839844
vt 0.468750 0.847656
vt 0.476562 0.847656
vt 0.484375 0.863281
vt 0.484375 0.875000
vt 0.500000 0.875000
vt 0.500000 0.863281
vt 0.484375 0.863281
vt 0.484375 0.875000
vt 0.500000 0.875000
vt 0.500000 0.863281
vt 0.484375 0.863281
vt 0.484375 0.875000
vt 0.500000 0.875000
vt 0.500000 0.863281
vt 0.484375 0.863281
vt 0.484375 0.875000
vt 0.500000 0.875000
vt 0.500000 0.863281
vn -0.0000 -1.0000 0.0000
vn -0.0000 0.0000 -1.0000
vn 0.0000 -0.0000 1.0000
vn 1.0000 0.0000 0.0000
vn -1.0000 0.0000 0.0000
vn 0.0000 1.0000 0.0000
vn 0.9239 -0.3827 0.0000
vn -0.9239 0.3827 0.0000
vn -0.0712 0.9975 -0.0000
vn -0.3827 -0.9239 0.0000
usemtl cm
s off
f 102/1/1 100/2/1 98/3/1 104/4/1
f 98/5/2 100/6/2 99/7/2 97/8/2
f 110/9/3 112/10/3 111/11/3 109/12/3
f 104/13/4 98/5/4 97/8/4 103/14/4
f 100/6/5 102/15/5 101/16/5 99/7/5
f 103/17/6 97/18/6 99/19/6 101/16/6
f 110/20/1 108/21/1 106/22/1 112/23/1
f 106/24/2 108/25/2 107/26/2 105/27/2
f 118/28/3 120/29/3 119/30/3 117/31/3
f 112/10/4 106/24/4 105/27/4 111/11/4
f 108/25/5 110/32/5 109/33/5 107/26/5
f 111/34/6 105/35/6 107/36/6 109/37/6
f 114/38/2 116/39/2 115/40/2 113/41/2
f 120/42/4 114/43/4 113/44/4 119/45/4
f 116/46/5 118/47/5 117/48/5 115/49/5
f 102/50/3 104/51/3 103/52/3 101/53/3
f 122/54/2 124/55/2 123/56/2 121/57/2
f 129/58/1 132/59/1 131/60/1 130/61/1
f 128/62/7 122/63/7 121/64/7 127/65/7
f 124/66/8 126/67/8 125/68/8 123/69/8
f 136/70/9 133/71/9 134/72/9 135/73/9
f 131/74/5 135/75/5 134/76/5 130/77/5
f 126/78/3 128/79/3 127/80/3 125/81/3
f 132/82/3 136/83/3 135/84/3 131/85/3
f 130/86/2 134/87/2 133/88/2 129/89/2
f 126/90/10 124/91/10 122/92/10 128/93/10
s 1
f 6/94/1 4/95/1 2/96/1 8/97/1
f 14/98/3 16/99/3 15/100/3 13/101/3
f 8/102/4 2/103/4 1/104/4 7/105/4
f 4/106/5 6/107/5 5/108/5 3/109/5
f 7/105/6 1/104/6 3/110/6 5/111/6
f 14/98/1 12/112/1 10/113/1 16/99/1
f 10/114/2 12/115/2 11/116/2 9/117/2
f 22/118/3 24/119/3 23/120/3 21/121/3
f 16/122/4 10/123/4 9/124/4 15/125/4
f 12/126/5 14/127/5 13/128/5 11/129/5
f 15/130/6 9/131/6 11/132/6 13/133/6
f 22/118/1 20/134/1 18/135/1 24/119/1
f 30/136/3 32/137/3 31/138/3 29/139/3
f 24/119/4 18/140/4 17/141/4 23/120/4
f 20/142/5 22/118/5 21/121/5 19/143/5
f 23/120/6 17/144/6 19/145/6 21/121/6
f 30/136/1 28/146/1 26/147/1 32/137/1
f 26/148/2 28/149/2 27/150/2 25/151/2
f 38/152/3 40/153/3 39/154/3 37/155/3
f 38/152/1 36/156/1 34/157/1 40/153/1
f 34/158/2 36/159/2 35/160/2 33/161/2
f 46/162/3 48/163/3 47/164/3 45/165/3
f 40/153/4 34/166/4 33/167/4 39/154/4
f 36/168/5 38/169/5 37/170/5 35/171/5
f 39/172/6 33/173/6 35/174/6 37/175/6
f 46/176/1 44/177/1 42/178/1 48/179/1
f 48/180/4 42/181/4 41/182/4 47/183/4
f 44/184/5 46/185/5 45/186/5 43/187/5
f 47/188/6 41/189/6 43/190/6 45/191/6
f 54/192/1 56/193/1 50/194/1 52/195/1
f 62/196/2 61/197/2 63/198/2 64/199/2
f 56/200/4 55/201/4 49/202/4 50/203/4
f 52/204/5 51/205/5 53/206/5 54/207/5
f 55/201/6 53/208/6 51/209/6 49/202/6
f 62/196/1 64/199/1 58/210/1 60/211/1
f 58/212/3 57/213/3 59/214/3 60/215/3
f 70/216/2 69/217/2 71/218/2 72/219/2
f 64/220/4 63/221/4 57/222/4 58/223/4
f 60/224/5 59/225/5 61/226/5 62/227/5
f 63/228/6 61/229/6 59/230/6 57/231/6
f 70/216/1 72/219/1 66/232/1 68/233/1
f 78/234/2 77/235/2 79/236/2 80/237/2
f 72/219/4 71/218/4 65/238/4 66/239/4
f 68/240/5 67/241/5 69/217/5 70/216/5
f 71/218/6 69/217/6 67/242/6 65/243/6
f 78/234/1 80/237/1 74/244/1 76/245/1
f 74/246/3 73/247/3 75/248/3 76/249/3
f 86/250/2 85/251/2 87/252/2 88/253/2
f 86/250/1 88/253/1 82/254/1 84/255/1
f 82/256/3 81/257/3 83/258/3 84/259/3
f 94/260/2 93/261/2 95/262/2 96/263/2
f 88/253/4 87/252/4 81/264/4 82/265/4
f 84/266/5 83/267/5 85/268/5 86/269/5
f 87/270/6 85/271/6 83/272/6 81/273/6
f 94/274/1 96/275/1 90/276/1 92/277/1
f 96/278/4 95/279/4 89/280/4 90/281/4
f 92/282/5 91/283/5 93/284/5 94/285/5
f 95/286/6 93/287/6 91/288/6 89/289/6
