# Blender v2.91.0 OBJ File: 'crusher.blend'
# www.blender.org
mtllib crusher_1.mtl
o round_cube.003
v 1.937500 2.250000 1.437500
v 2.062500 2.250000 1.187500
v 2.062500 1.750000 1.187500
v 1.937500 2.250000 1.187500
v 1.937500 1.750000 1.187500
v 1.687500 2.250000 1.687500
v 1.687500 1.750000 1.687500
v 2.062500 2.250000 1.687500
v 2.062500 1.750000 1.687500
v 2.062500 2.250000 1.437500
v 1.687500 2.250000 1.437500
v 1.687500 1.750000 1.437500
v 1.937500 2.187500 1.437500
v 1.937500 2.187500 1.187500
v 1.687500 2.187500 1.437500
v 1.937500 1.875000 1.437500
v 1.937500 1.875000 1.187500
v 1.687500 1.875000 1.437500
v 1.687500 2.500000 1.687500
v 1.687500 1.500000 1.687500
v 1.687500 2.500000 1.312500
v 1.687500 1.500000 1.312500
v 1.312500 2.500000 1.312500
v 1.312500 1.500000 1.312500
v 1.312500 2.500000 1.687500
v 1.312500 1.500000 1.687500
v 1.437500 2.250000 1.062500
v 1.187500 2.250000 0.937500
v 1.187500 1.750000 0.937500
v 1.187500 2.250000 1.062500
v 1.187500 1.750000 1.062500
v 1.687500 2.250000 1.312500
v 1.687500 1.750000 1.312500
v 1.687500 2.250000 0.937500
v 1.687500 1.750000 0.937500
v 1.437500 2.250000 0.937500
v 1.437500 2.250000 1.312500
v 1.437500 1.750000 1.312500
v 1.437500 2.187500 1.062500
v 1.187500 2.187500 1.062500
v 1.437500 2.187500 1.312500
v 1.437500 1.875000 1.062500
v 1.187500 1.875000 1.062500
v 1.437500 1.875000 1.312500
v 1.062500 2.250000 1.562500
v 0.937500 2.250000 1.812500
v 0.937500 1.750000 1.812500
v 1.062500 2.250000 1.812500
v 1.062500 1.750000 1.812500
v 1.312500 2.250000 1.312500
v 1.312500 1.750000 1.312500
v 0.937500 2.250000 1.312500
v 0.937500 1.750000 1.312500
v 0.937500 2.250000 1.562500
v 1.312500 2.250000 1.562500
v 1.312500 1.750000 1.562500
v 1.062500 2.187500 1.562500
v 1.062500 2.187500 1.812500
v 1.312500 2.187500 1.562500
v 1.062500 1.875000 1.562500
v 1.062500 1.875000 1.812500
v 1.312500 1.875000 1.562500
v 1.562500 2.250000 1.937500
v 1.812500 2.250000 2.062500
v 1.812500 1.750000 2.062500
v 1.812500 2.250000 1.937500
v 1.812500 1.750000 1.937500
v 1.312500 2.250000 1.687500
v 1.312500 1.750000 1.687500
v 1.312500 2.250000 2.062500
v 1.312500 1.750000 2.062500
v 1.562500 2.250000 2.062500
v 1.562500 2.250000 1.687500
v 1.562500 1.750000 1.687500
v 1.562500 2.187500 1.937500
v 1.812500 2.187500 1.937500
v 1.562500 2.187500 1.687500
v 1.562500 1.875000 1.937500
v 1.812500 1.875000 1.937500
v 1.562500 1.875000 1.687500
vt 0.953125 0.890625
vt 0.953125 0.910156
vt 0.976562 0.910156
vt 0.976562 0.890625
vt 0.945312 0.921875
vt 0.929688 0.921875
vt 0.929688 0.914062
vt 0.945312 0.914062
vt 0.890625 0.882812
vt 0.914062 0.882812
vt 0.914062 0.914062
vt 0.890625 0.914062
vt 0.945312 0.882812
vt 0.929688 0.937500
vt 0.914062 0.937500
vt 0.953125 0.882812
vt 0.953125 0.914062
vt 0.976562 0.914062
vt 0.976562 0.910156
vt 0.953125 0.921875
vt 0.945312 0.914062
vt 0.960938 0.914062
vt 0.953125 0.921875
vt 0.945312 0.914062
vt 0.960938 0.914062
vt 0.976562 0.882812
vt 0.976562 0.890625
vt 1.000000 0.910156
vt 1.000000 0.890625
vt 0.460938 0.738281
vt 0.484375 0.738281
vt 0.484375 0.800781
vt 0.460938 0.800781
vt 0.460938 0.738281
vt 0.484375 0.738281
vt 0.484375 0.800781
vt 0.460938 0.800781
vt 0.460938 0.738281
vt 0.484375 0.738281
vt 0.484375 0.800781
vt 0.460938 0.800781
vt 0.460938 0.738281
vt 0.484375 0.738281
vt 0.484375 0.800781
vt 0.460938 0.800781
vt 0.953125 0.890625
vt 0.953125 0.910156
vt 0.976562 0.910156
vt 0.976562 0.890625
vt 0.945312 0.921875
vt 0.929688 0.921875
vt 0.929688 0.914062
vt 0.945312 0.914062
vt 0.890625 0.882812
vt 0.914062 0.882812
vt 0.914062 0.914062
vt 0.890625 0.914062
vt 0.945312 0.882812
vt 0.929688 0.937500
vt 0.914062 0.937500
vt 0.953125 0.882812
vt 0.953125 0.914062
vt 0.976562 0.914062
vt 0.976562 0.910156
vt 0.953125 0.921875
vt 0.945312 0.914062
vt 0.960938 0.914062
vt 0.953125 0.921875
vt 0.945312 0.914062
vt 0.960938 0.914062
vt 0.976562 0.882812
vt 0.976562 0.890625
vt 1.000000 0.910156
vt 1.000000 0.890625
vt 0.953125 0.890625
vt 0.953125 0.910156
vt 0.976562 0.910156
vt 0.976562 0.890625
vt 0.945312 0.921875
vt 0.929688 0.921875
vt 0.929688 0.914062
vt 0.945312 0.914062
vt 0.890625 0.882812
vt 0.914062 0.882812
vt 0.914062 0.914062
vt 0.890625 0.914062
vt 0.945312 0.882812
vt 0.929688 0.937500
vt 0.914062 0.937500
vt 0.953125 0.882812
vt 0.953125 0.914062
vt 0.976562 0.914062
vt 0.976562 0.910156
vt 0.953125 0.921875
vt 0.945312 0.914062
vt 0.960938 0.914062
vt 0.953125 0.921875
vt 0.945312 0.914062
vt 0.960938 0.914062
vt 0.976562 0.882812
vt 0.976562 0.890625
vt 1.000000 0.910156
vt 1.000000 0.890625
vt 0.953125 0.890625
vt 0.953125 0.910156
vt 0.976562 0.910156
vt 0.976562 0.890625
vt 0.945312 0.921875
vt 0.929688 0.921875
vt 0.929688 0.914062
vt 0.945312 0.914062
vt 0.890625 0.882812
vt 0.914062 0.882812
vt 0.914062 0.914062
vt 0.890625 0.914062
vt 0.945312 0.882812
vt 0.929688 0.937500
vt 0.914062 0.937500
vt 0.953125 0.882812
vt 0.953125 0.914062
vt 0.976562 0.914062
vt 0.976562 0.910156
vt 0.953125 0.921875
vt 0.945312 0.914062
vt 0.960938 0.914062
vt 0.953125 0.921875
vt 0.945312 0.914062
vt 0.960938 0.914062
vt 0.976562 0.882812
vt 0.976562 0.890625
vt 1.000000 0.910156
vt 1.000000 0.890625
vn 1.0000 0.0000 0.0000
vn 0.8315 -0.3929 -0.3928
vn 0.8315 -0.3930 0.3927
vn 0.0000 1.0000 0.0000
vn 0.0000 0.0000 1.0000
vn -0.0000 0.0000 -1.0000
vn 0.7071 0.0000 0.7071
vn 0.0000 -1.0000 0.0000
vn 0.3927 -0.8315 0.3930
vn -0.3952 -0.7827 -0.4808
vn -0.7071 0.0000 -0.7071
vn -0.5834 0.0905 0.8071
vn 0.1886 -0.5931 0.7827
vn 0.3930 -0.3927 0.8315
vn -0.3929 -0.3928 0.8315
vn -1.0000 0.0000 0.0000
vn -0.3928 -0.3929 -0.8315
vn 0.3927 -0.3930 -0.8315
vn 0.7071 0.0000 -0.7071
vn 0.3930 -0.8315 -0.3927
vn -0.4808 -0.7827 0.3952
vn -0.7071 0.0000 0.7071
vn 0.8071 0.0905 0.5834
vn 0.7827 -0.5931 -0.1886
vn 0.8315 -0.3927 -0.3930
vn 0.8315 -0.3928 0.3929
vn -0.8315 -0.3929 0.3928
vn -0.8315 -0.3930 -0.3927
vn -0.3927 -0.8315 -0.3930
vn 0.3952 -0.7827 0.4808
vn 0.5834 0.0905 -0.8071
vn -0.1886 -0.5931 -0.7827
vn -0.3930 -0.3927 -0.8315
vn 0.3929 -0.3928 -0.8315
vn 0.3928 -0.3929 0.8315
vn -0.3927 -0.3930 0.8315
vn -0.3930 -0.8315 0.3927
vn 0.4808 -0.7827 -0.3952
vn -0.8071 0.0905 -0.5834
vn -0.7827 -0.5931 0.1886
vn -0.8315 -0.3927 0.3930
vn -0.8315 -0.3928 -0.3929
usemtl cr
s off
f 17/1/1 14/2/1 13/3/2 16/4/3
f 4/5/4 1/6/4 10/7/4 2/8/4
f 7/9/5 9/10/5 8/11/5 6/12/5
f 3/13/1 2/8/1 8/11/1 9/10/1
f 11/14/4 6/15/4 8/11/4 10/7/4
f 3/13/6 5/16/6 4/17/6 2/8/6
f 4/17/7 11/18/7 15/19/7 14/2/7
f 1/20/8 11/21/8 4/22/8
f 16/23/9 18/24/10 17/25/8
f 5/16/11 12/26/11 18/27/11 17/1/11
f 15/28/12 18/29/13 16/4/14 13/3/15
f 24/30/16 26/31/16 25/32/16 23/33/16
f 26/34/5 20/35/5 19/36/5 25/37/5
f 22/38/6 24/39/6 23/40/6 21/41/6
f 20/42/1 22/43/1 21/44/1 19/45/1
f 43/46/6 40/47/6 39/48/17 42/49/18
f 30/50/4 27/51/4 36/52/4 28/53/4
f 33/54/1 35/55/1 34/56/1 32/57/1
f 29/58/6 28/53/6 34/56/6 35/55/6
f 37/59/4 32/60/4 34/56/4 36/52/4
f 29/58/16 31/61/16 30/62/16 28/53/16
f 30/62/19 37/63/19 41/64/19 40/47/19
f 27/65/8 37/66/8 30/67/8
f 42/68/20 44/69/21 43/70/8
f 31/61/22 38/71/22 44/72/22 43/46/22
f 41/73/23 44/74/24 42/49/25 39/48/26
f 61/75/16 58/76/16 57/77/27 60/78/28
f 48/79/4 45/80/4 54/81/4 46/82/4
f 51/83/6 53/84/6 52/85/6 50/86/6
f 47/87/16 46/82/16 52/85/16 53/84/16
f 55/88/4 50/89/4 52/85/4 54/81/4
f 47/87/5 49/90/5 48/91/5 46/82/5
f 48/91/11 55/92/11 59/93/11 58/76/11
f 45/94/8 55/95/8 48/96/8
f 60/97/29 62/98/30 61/99/8
f 49/90/7 56/100/7 62/101/7 61/75/7
f 59/102/31 62/103/32 60/78/33 57/77/34
f 79/104/5 76/105/5 75/106/35 78/107/36
f 66/108/4 63/109/4 72/110/4 64/111/4
f 69/112/16 71/113/16 70/114/16 68/115/16
f 65/116/5 64/111/5 70/114/5 71/113/5
f 73/117/4 68/118/4 70/114/4 72/110/4
f 65/116/1 67/119/1 66/120/1 64/111/1
f 66/120/22 73/121/22 77/122/22 76/105/22
f 63/123/8 73/124/8 66/125/8
f 78/126/37 80/127/38 79/128/8
f 67/119/19 74/129/19 80/130/19 79/104/19
f 77/131/39 80/132/40 78/107/41 75/106/42
