# Blender v2.80 (sub 75) OBJ File: 'чаз.blend'
# www.blender.org
mtllib pigiron_anvil.mtl
o Cube_Cube.001
v 0.593750 0.692500 0.812500
v 0.593750 0.692500 0.875000
v 0.406250 0.692500 0.812500
v 0.406250 0.692500 0.875000
v 0.467029 0.700000 -0.053239
v 0.471338 0.683180 -0.053239
v 0.478063 0.673115 -0.053239
v 0.488128 0.666390 -0.053239
v 0.500000 0.664029 -0.053239
v 0.511872 0.666390 -0.053239
v 0.521937 0.673115 -0.053239
v 0.528662 0.683180 -0.053239
v 0.532971 0.700000 -0.053239
v 0.422928 0.700000 0.009261
v 0.391257 0.700000 0.071761
v 0.375000 0.700000 0.134261
v 0.361111 0.687186 0.196761
v 0.411660 0.659726 0.009261
v 0.375359 0.647613 0.071761
v 0.356947 0.638908 0.134261
v 0.345625 0.630718 0.196761
v 0.418384 0.625920 0.009261
v 0.384847 0.599914 0.071761
v 0.367836 0.584164 0.134261
v 0.357376 0.578935 0.196761
v 0.349870 0.570467 0.259261
v 0.349870 0.567008 0.321761
v 0.437534 0.597260 0.009261
v 0.411865 0.559478 0.071761
v 0.398846 0.537754 0.134261
v 0.390840 0.526216 0.196761
v 0.385095 0.517748 0.259261
v 0.385095 0.514289 0.321761
v 0.385095 0.510095 0.384261
v 0.466194 0.578110 0.009261
v 0.452302 0.532459 0.071761
v 0.445256 0.506744 0.134261
v 0.440923 0.490991 0.196761
v 0.437814 0.482523 0.259261
v 0.437814 0.479063 0.321761
v 0.437814 0.474870 0.384261
v 0.500000 0.571386 0.009261
v 0.500000 0.522971 0.071761
v 0.500000 0.495854 0.134261
v 0.500000 0.478621 0.196761
v 0.500000 0.470153 0.259261
v 0.500000 0.466694 0.321761
v 0.500000 0.462500 0.384261
v 0.533806 0.578110 0.009261
v 0.547698 0.532459 0.071761
v 0.554744 0.506744 0.134261
v 0.559077 0.490990 0.196761
v 0.562186 0.482523 0.259261
v 0.562186 0.479063 0.321761
v 0.562186 0.474870 0.384261
v 0.562466 0.597260 0.009261
v 0.588135 0.559478 0.071761
v 0.601154 0.537754 0.134261
v 0.609160 0.526216 0.196761
v 0.614905 0.517748 0.259261
v 0.614905 0.514289 0.321761
v 0.614905 0.510095 0.384261
v 0.581616 0.625920 0.009261
v 0.615153 0.599914 0.071761
v 0.632164 0.584163 0.134261
v 0.642624 0.578935 0.196761
v 0.650130 0.570467 0.259261
v 0.650130 0.567008 0.321761
v 0.588340 0.659726 0.009261
v 0.624641 0.647613 0.071761
v 0.643053 0.638908 0.134261
v 0.654375 0.630718 0.196761
v 0.577072 0.700000 0.009261
v 0.608743 0.700000 0.071761
v 0.625000 0.700000 0.134261
v 0.638889 0.687186 0.196761
v 0.372814 0.721524 0.196761
v 0.627186 0.721524 0.196761
v 0.375000 0.721524 0.134261
v 0.625000 0.721524 0.134261
v 0.500000 0.700000 -0.069239
v 0.875000 0.000000 0.187500
v 0.750000 0.750000 0.250000
v 0.875000 0.000000 1.000000
v 0.750000 0.750000 1.000000
v 0.125000 0.000000 0.187500
v 0.250000 0.750000 0.250000
v 0.125000 0.000000 1.000000
v 0.250000 0.750000 1.000000
v 0.875000 0.125000 0.187500
v 0.687500 0.125000 0.187500
v 0.687500 0.187500 0.313000
v 0.687500 0.250000 0.375500
v 0.687500 0.312500 0.413000
v 0.687500 0.375000 0.423000
v 0.687500 0.437500 0.423000
v 0.687500 0.500000 0.413000
v 0.687500 0.562500 0.375500
v 0.687500 0.625000 0.313000
v 0.750000 0.625000 0.250000
v 0.750000 0.625000 1.000000
v 0.687500 0.625000 0.875000
v 0.687500 0.562500 0.812500
v 0.687500 0.500000 0.775000
v 0.687500 0.437500 0.765000
v 0.687500 0.375000 0.765000
v 0.687500 0.312500 0.775000
v 0.687500 0.250000 0.812500
v 0.687500 0.187500 0.875000
v 0.687500 0.125000 0.875000
v 0.875000 0.125000 1.000000
v 0.250000 0.625000 1.000000
v 0.312500 0.625000 0.875000
v 0.312500 0.562500 0.812500
v 0.312500 0.500000 0.775000
v 0.312500 0.437500 0.765000
v 0.312500 0.375000 0.765000
v 0.312500 0.312500 0.775000
v 0.312500 0.250000 0.812500
v 0.312500 0.187500 0.875000
v 0.312500 0.125000 0.875000
v 0.125000 0.125000 1.000000
v 0.250000 0.625000 0.250000
v 0.312500 0.625000 0.313000
v 0.312500 0.562500 0.375500
v 0.312500 0.500000 0.413000
v 0.312500 0.437500 0.423000
v 0.312500 0.375000 0.423000
v 0.312500 0.312500 0.413000
v 0.312500 0.250000 0.375500
v 0.312500 0.187500 0.313000
v 0.312500 0.125000 0.187500
v 0.125000 0.125000 0.187500
v 0.187500 0.000000 0.375000
v 0.187500 0.125000 0.375000
v 0.812500 0.125000 0.812500
v 0.812500 0.000000 0.812500
v 0.812500 0.125000 0.375000
v 0.812500 0.000000 0.375000
v 0.875000 0.125000 0.312500
v 0.875000 0.000000 0.312500
v 0.875000 0.000000 0.875000
v 0.875000 0.125000 0.875000
v 0.187500 0.000000 0.812500
v 0.125000 0.000000 0.875000
v 0.187500 0.125000 0.812500
v 0.125000 0.125000 0.875000
v 0.125000 0.000000 0.312500
v 0.125000 0.125000 0.312500
v 0.357059 0.687186 0.250000
v 0.340387 0.625000 0.250000
v 0.372814 0.721524 0.250000
v 0.627186 0.721524 0.250000
v 0.642941 0.687186 0.250000
v 0.659613 0.625000 0.250000
v 0.337713 0.625000 0.313000
v 0.350472 0.562500 0.375500
v 0.359835 0.547899 0.384261
v 0.649528 0.562500 0.375500
v 0.662287 0.625000 0.313000
v 0.385095 0.510095 0.406943
v 0.640165 0.547899 0.384261
v 0.500000 0.462500 0.419000
v 0.437814 0.474870 0.417021
v 0.599796 0.500000 0.413000
v 0.614905 0.510095 0.406943
v 0.562186 0.474870 0.417021
v 0.400204 0.500000 0.413000
v 0.593750 0.750000 0.812500
v 0.406250 0.750000 0.812500
v 0.593750 0.750000 0.875000
v 0.406250 0.750000 0.875000
vt 0.593750 0.781250
vt 0.562500 0.781250
vt 0.562500 0.750000
vt 0.593750 0.750000
vt 0.562500 0.875000
vt 0.531250 0.875000
vt 0.531250 0.781250
vt 0.593750 0.875000
vt 0.593750 0.906250
vt 0.562500 0.906250
vt 0.625000 0.781250
vt 0.625000 0.875000
vt 0.246845 0.774307
vt 0.277280 0.758885
vt 0.277280 0.864789
vt 0.246845 0.849367
vt 0.872297 0.620182
vt 0.866769 0.620253
vt 0.851866 0.594461
vt 0.861964 0.593330
vt 0.602766 0.839908
vt 0.592433 0.813056
vt 0.605166 0.815429
vt 0.918542 0.476552
vt 0.919031 0.459646
vt 0.936650 0.481608
vt 0.625000 0.718750
vt 0.656250 0.750000
vt 0.625000 0.750000
vt 0.869050 0.631719
vt 0.861731 0.641211
vt 0.858489 0.636733
vt 0.857225 0.633267
vt 0.857136 0.629666
vt 0.858199 0.626267
vt 0.860291 0.623385
vt 0.863234 0.621308
vt 0.562500 0.625000
vt 0.562500 0.687500
vt 0.187500 0.687500
vt 0.187500 0.625000
vt -0.000000 0.718750
vt -0.000000 0.625000
vt 0.062500 0.625000
vt 0.718750 0.718750
vt 0.750000 0.718750
vt 0.750000 0.906250
vt 0.718750 0.906250
vt 0.781250 0.718750
vt 0.781250 0.906250
vt 0.812500 0.718750
vt 0.812500 0.906250
vt 0.843750 0.718750
vt 0.843750 0.906250
vt 0.875000 0.812500
vt 0.906250 0.718750
vt 0.925000 0.750000
vt 0.916250 0.750000
vt 0.656250 0.906250
vt 0.625000 0.937500
vt 0.625000 0.875000
vt 0.656250 0.875000
vt -0.000000 0.625000
vt 0.062500 0.625000
vt 0.062500 1.000000
vt 0.000000 1.000000
vt 1.000000 0.437500
vt 1.000000 0.468750
vt 0.718750 0.468750
vt 0.656250 0.437500
vt 0.968750 0.500000
vt 0.750000 0.500000
vt 0.949634 0.531406
vt 0.771531 0.531406
vt 0.944714 0.562156
vt 0.776451 0.562156
vt 0.944714 0.592906
vt 0.776451 0.592906
vt 0.949634 0.623656
vt 0.771531 0.623656
vt 0.968750 0.656250
vt 0.750000 0.656250
vt 0.687500 0.906250
vt 0.687500 0.718750
vt 0.718750 0.718750
vt 0.718750 0.906250
vt 0.937500 0.906250
vt 1.000000 0.937500
vt 0.375995 0.624513
vt 0.436230 0.624513
vt 0.437500 0.562500
vt 0.375000 0.562500
vt 0.937500 0.906250
vt 0.906250 0.906250
vt 0.906250 0.718750
vt 0.937500 0.718750
vt 0.875000 0.906250
vt 0.875000 0.718750
vt 0.843750 0.906250
vt 0.843750 0.718750
vt 0.812500 0.906250
vt 0.812500 0.718750
vt 0.781250 0.906250
vt 0.781250 0.718750
vt 0.750000 0.906250
vt 0.750000 0.718750
vt 0.750000 0.656250
vt 0.718750 0.687500
vt 1.000000 0.687500
vt 0.968750 0.656250
vt 0.937500 0.718750
vt 1.000000 0.687500
vt 0.656250 0.906250
vt 0.656250 0.718750
vt 0.656250 0.437500
vt 0.718750 0.468750
vt 1.000000 0.468750
vt 1.000000 0.437500
vt 0.750000 0.500000
vt 0.968750 0.500000
vt 0.771531 0.531406
vt 0.949634 0.531406
vt 0.776451 0.562156
vt 0.944714 0.562156
vt 0.776452 0.592906
vt 0.944714 0.592906
vt 0.771531 0.623656
vt 0.949634 0.623656
vt 0.968750 0.718750
vt 0.968750 0.750000
vt 0.937500 0.750000
vt 0.937500 0.718750
vt 0.656250 0.718750
vt 0.625000 0.687500
vt 0.625000 0.937500
vt 0.562500 0.937500
vt 0.625000 0.687500
vt 0.187500 1.000000
vt 0.187500 0.937500
vt 0.562500 1.000000
vt 0.375000 0.218750
vt 0.437500 0.218750
vt 0.437500 0.281250
vt 0.375000 0.281250
vt 1.000000 0.687500
vt 0.718750 0.687500
vt 0.437500 0.531250
vt 0.375000 0.531250
vt 0.437500 0.312500
vt 0.375000 0.312500
vt 0.437500 0.312500
vt 0.375000 0.312500
vt 0.375000 0.531250
vt 0.437500 0.531250
vt 0.437500 0.562500
vt 0.375000 0.562500
vt 0.437500 0.281250
vt 0.375000 0.281250
vt 0.875000 0.843750
vt 0.925000 0.875000
vt 0.937500 0.906250
vt 0.906250 0.906250
vt 0.500000 0.859375
vt 0.500000 0.765625
vt 0.656250 0.750000
vt 0.625000 0.750000
vt 0.784273 0.481608
vt 0.801892 0.459646
vt 0.802381 0.476552
vt 0.900148 0.448103
vt 0.913885 0.456337
vt 0.899665 0.455199
vt 0.807038 0.456337
vt 0.820776 0.448103
vt 0.821258 0.455199
vt 0.937500 0.875000
vt 0.968750 0.875000
vt 0.968750 0.906250
vt 0.834020 0.648949
vt 0.828901 0.640172
vt 0.625000 0.781250
vt 0.625000 0.812500
vt 0.593750 0.812500
vt 0.593750 0.781250
vt 0.879743 0.473337
vt 0.879313 0.492161
vt 0.860462 0.491662
vt 0.860462 0.472926
vt 0.899094 0.474565
vt 0.898194 0.493516
vt 0.318195 0.872706
vt 0.307714 0.872706
vt 0.307714 0.750969
vt 0.318195 0.750969
vt 0.826391 0.630668
vt 0.821829 0.474565
vt 0.216411 0.795782
vt 0.216411 0.827892
vt 0.208620 0.811837
vt 0.856920 0.571608
vt 0.842232 0.574549
vt 0.807174 0.644328
vt 0.804235 0.629965
vt 0.803745 0.495755
vt 0.787312 0.501333
vt 0.826618 0.621014
vt 0.933611 0.501333
vt 0.917178 0.495755
vt 0.813582 0.657867
vt 0.832434 0.555304
vt 0.828955 0.580764
vt 0.815316 0.564052
vt 0.793365 0.665734
vt 0.785885 0.647954
vt 0.915822 0.515064
vt 0.896943 0.512556
vt 0.805049 0.615504
vt 0.825313 0.532265
vt 0.807978 0.534564
vt 0.805101 0.515064
vt 0.823980 0.512556
vt 0.479044 0.972629
vt 0.467987 0.990147
vt 0.468062 0.969734
vt 0.809588 0.601845
vt 0.784307 0.610005
vt 0.790645 0.592327
vt 0.817837 0.590049
vt 0.801045 0.576689
vt 0.895610 0.532265
vt 0.912945 0.534564
vt 0.471809 0.953415
vt 0.450448 0.965268
vt 0.452166 0.948599
vt 0.878539 0.511029
vt 0.841180 0.473337
vt 0.840933 0.454127
vt 0.309338 0.985076
vt 0.289970 0.969734
vt 0.307585 0.965268
vt 0.879990 0.454127
vt 0.880326 0.443909
vt 0.894541 0.445832
vt 0.860461 0.510456
vt 0.860462 0.453751
vt 0.842384 0.511029
vt 0.841610 0.492161
vt 0.878116 0.530910
vt 0.822729 0.493516
vt 0.860462 0.442986
vt 0.829561 0.611879
vt 0.842743 0.598121
vt 0.835134 0.604065
vt 0.860461 0.530533
vt 0.842806 0.530910
vt 0.930139 0.537811
vt 0.931893 0.518002
vt 0.790784 0.537811
vt 0.789030 0.518002
vt 0.593750 0.750000
vt 0.593750 0.718750
vt 0.782686 0.628999
vt 0.286224 0.953415
vt 0.305867 0.948599
vt 0.562500 0.750000
vt 0.562500 0.718750
vt 0.625000 0.750000
vt 0.593750 0.750000
vt 0.468750 0.859375
vt 0.826382 0.445832
vt 0.840597 0.443909
vt 0.281250 0.968750
vt 0.312500 1.000000
vt 0.281250 1.000000
vt 0.468750 0.765625
vt 0.468750 1.000000
vt 0.500000 0.968750
vt 0.500000 1.000000
vt 0.348630 0.749904
vt 0.348630 0.873771
vt 0.281250 0.968750
vt 0.250000 0.937500
vt 0.281250 0.937500
vt 0.851164 0.550692
vt 0.374555 0.749904
vt 0.374554 0.873771
vt 0.437500 0.218750
vt 0.375000 0.218750
vt 0.437500 0.625000
vt 0.375000 0.625000
vt 0.448694 0.985076
vt 0.500000 0.968750
vt 0.500000 1.000000
vt 0.468750 1.000000
vt 0.483278 0.956452
vt 0.312500 0.968750
vt 0.281250 0.937500
vt 0.290045 0.990147
vt 0.875000 0.781250
vt 0.906250 0.750000
vt 0.125000 0.937500
vt 0.125000 0.893253
vt 0.156383 0.884914
vt 0.173560 0.877033
vt 0.173560 0.749785
vt 0.906250 0.875000
vt -0.000000 0.281250
vt -0.000000 0.218750
vt 0.375000 0.218750
vt 0.375000 0.281250
vt 0.031250 0.531250
vt 0.343750 0.531250
vt 0.375000 0.562500
vt 0.000000 0.562500
vt 0.031250 0.312500
vt 0.343750 0.312500
vt -0.000000 0.625000
vt 0.375000 0.625000
vt 0.000000 0.218750
vt 0.093750 0.218750
vt 0.093750 0.281250
vt 0.343750 0.593750
vt 0.343750 0.312500
vt 0.281250 0.218750
vt 0.281250 0.625000
vt 0.375000 0.281250
vt 0.375000 0.218750
vt 0.375000 0.625000
vt 0.156383 0.741904
vt 0.125000 0.687500
vt 0.125000 0.733564
vt 0.916250 0.875000
vt 0.062500 0.312500
vt 0.062500 0.593750
vt 0.093750 0.625000
vt 0.000000 0.625000
vt 0.406250 0.562500
vt 0.312500 0.562500
vt 0.406250 0.625000
vt 0.062500 1.000000
vt 0.000000 1.000000
vt -0.000000 0.906250
vt 0.125000 0.562500
vt 0.031250 0.562500
vt 0.031250 0.625000
vn -1.0000 0.0000 0.0000
vn 0.0000 0.0000 -1.0000
vn 1.0000 0.0000 0.0000
vn 0.0000 0.0000 1.0000
vn 0.0000 1.0000 0.0000
vn -0.6865 -0.1496 -0.7116
vn -0.7965 0.2229 -0.5620
vn -0.9785 -0.2061 -0.0063
vn 0.7965 0.2229 -0.5620
vn -0.4339 -0.1111 -0.8941
vn 0.4339 -0.1111 -0.8941
vn 0.3612 -0.2413 -0.9007
vn 0.2335 -0.3495 -0.9074
vn 0.0806 -0.4051 -0.9107
vn -0.0806 -0.4051 -0.9107
vn -0.2335 -0.3495 -0.9074
vn -0.3612 -0.2413 -0.9007
vn 0.0000 0.7071 -0.7071
vn 0.0000 0.5145 -0.8575
vn 0.0000 0.1580 -0.9874
vn 0.0000 -0.1580 -0.9874
vn 0.0000 -0.5145 -0.8575
vn 0.0000 -1.0000 0.0000
vn 0.0000 -0.7071 0.7071
vn 0.0000 0.7071 0.7071
vn 0.0000 0.5145 0.8575
vn 0.0000 0.1580 0.9874
vn 0.0000 -0.1580 0.9874
vn 0.0000 -0.5145 0.8575
vn 0.0000 0.8951 -0.4458
vn 0.0000 -0.7071 -0.7071
vn 0.7071 0.0000 0.7071
vn -0.7071 0.0000 -0.7071
vn -0.7071 0.0000 0.7071
vn 0.7071 0.0000 -0.7071
vn 0.9785 -0.2061 -0.0063
vn -0.8315 -0.5556 0.0000
vn 0.8315 -0.5556 0.0000
vn 0.6865 -0.1496 -0.7116
vn -0.8602 0.2522 -0.4433
vn -0.1948 -0.9793 -0.0542
vn -0.5550 -0.8306 -0.0460
vn 0.5288 -0.3533 -0.7717
vn 0.8309 -0.5552 -0.0373
vn -0.8382 -0.1667 -0.5192
vn 0.6884 -0.4600 -0.5608
vn 0.9809 -0.1928 -0.0262
vn 0.3276 -0.4903 -0.8076
vn -0.9831 -0.1780 -0.0417
vn -0.9783 -0.2068 -0.0114
vn 0.8382 -0.1667 -0.5192
vn -0.7807 -0.5217 -0.3440
vn 0.9352 -0.1860 -0.3014
vn -0.8270 -0.5388 -0.1607
vn -0.8311 -0.5553 -0.0307
vn 0.4486 -0.6713 -0.5900
vn 0.8225 -0.5350 -0.1933
vn -0.9368 0.3193 -0.1427
vn 0.1795 -0.9025 -0.3916
vn -0.5150 -0.7707 -0.3752
vn -0.8225 -0.5350 -0.1933
vn -0.9628 0.2609 -0.0700
vn -0.5589 -0.8155 -0.1501
vn 0.5547 -0.8302 -0.0557
vn 0.9551 0.2619 -0.1387
vn -0.5556 -0.8315 -0.0000
vn -0.1980 -0.9707 -0.1364
vn -0.1947 -0.9787 -0.0657
vn 0.1980 -0.9707 -0.1364
vn -0.5508 -0.8024 -0.2296
vn -0.5547 -0.8302 -0.0557
vn 0.5589 -0.8155 -0.1501
vn -0.1951 -0.9808 0.0000
vn 0.5550 -0.8306 -0.0460
vn 0.1553 -0.7810 -0.6050
vn -0.4486 -0.6713 -0.5900
vn 0.8311 -0.5553 -0.0307
vn 0.1935 -0.9469 -0.2566
vn -0.1935 -0.9469 -0.2566
vn 0.8270 -0.5388 -0.1607
vn -0.1553 -0.7810 -0.6050
vn -0.9605 -0.2041 -0.1893
vn 0.5508 -0.8024 -0.2296
vn 0.9605 -0.2041 -0.1893
vn -0.6884 -0.4600 -0.5608
vn -0.1795 -0.9025 -0.3916
vn 0.8602 0.2522 -0.4433
vn 0.9698 -0.2052 -0.1319
vn 0.5150 -0.7707 -0.3752
vn -0.9698 -0.2052 -0.1319
vn -0.3276 -0.4904 -0.8076
vn 0.1106 -0.5558 -0.8239
vn 0.9628 0.2609 -0.0700
vn 0.7807 -0.5217 -0.3440
vn 0.9304 0.2783 -0.2387
vn 0.1947 -0.9787 -0.0657
vn 0.1948 -0.9793 -0.0542
vn -0.1106 -0.5558 -0.8239
vn -0.9304 0.2784 -0.2387
vn -0.5288 -0.3533 -0.7717
vn 0.5556 -0.8315 0.0000
vn 0.9994 0.0000 -0.0350
vn -0.9465 0.3226 0.0000
vn 0.1951 -0.9808 0.0000
vn 0.9067 0.4160 -0.0690
vn -0.9352 -0.1860 -0.3014
vn -0.9551 0.2619 -0.1387
vn -0.9994 0.0000 -0.0350
vn -0.9067 0.4160 -0.0690
vn -0.9477 0.2800 -0.1532
vn 0.9368 0.3193 -0.1427
vn 0.9465 0.3226 0.0000
vn 0.9477 0.2800 -0.1532
vn -0.8309 -0.5552 -0.0373
usemtl Material
s off
f 1/1/1 2/2/1 171/3/1 169/4/1
f 2/2/2 4/5/2 172/6/2 171/7/2
f 4/5/3 3/8/3 170/9/3 172/10/3
f 3/8/4 1/1/4 169/11/4 170/12/4
f 2/2/5 1/1/5 3/8/5 4/5/5
f 14/13/5 15/14/5 74/15/5 73/16/5
f 5/17/6 6/18/6 22/19/6 18/20/6
f 5/21/7 18/22/7 14/23/7
f 27/24/8 157/25/8 156/26/8
f 69/27/9 13/28/9 73/29/9
f 6/18/10 5/17/10 81/30/10
f 13/31/11 12/32/11 81/30/11
f 12/32/12 11/33/12 81/30/12
f 11/33/13 10/34/13 81/30/13
f 10/34/14 9/35/14 81/30/14
f 9/35/15 8/36/15 81/30/15
f 8/36/16 7/37/16 81/30/16
f 7/37/17 6/18/17 81/30/17
f 112/38/1 89/39/1 87/40/1 123/41/1
f 91/42/2 90/43/2 82/44/2
f 131/45/18 130/46/18 93/47/18 92/48/18
f 130/46/19 129/49/19 94/50/19 93/47/19
f 129/49/20 128/51/20 95/52/20 94/50/20
f 128/51/2 127/53/2 96/54/2 95/52/2
f 127/53/21 163/55/21 96/54/21
f 126/56/22 158/57/22 161/58/22
f 124/59/23 123/60/23 151/61/23 156/62/23
f 84/63/4 111/64/4 122/65/4 88/66/4
f 121/67/1 120/68/1 131/69/1 132/70/1
f 120/68/1 119/71/1 130/72/1 131/69/1
f 119/71/1 118/73/1 129/74/1 130/72/1
f 118/73/1 117/75/1 128/76/1 129/74/1
f 117/75/1 116/77/1 127/78/1 128/76/1
f 116/77/1 115/79/1 126/80/1 127/78/1
f 115/79/1 114/81/1 125/82/1 126/80/1
f 102/83/24 113/84/24 114/85/24 103/86/24
f 113/87/23 112/88/23 123/60/23 124/59/23
f 82/89/3 90/90/3 140/91/3 141/92/3
f 110/93/4 109/94/4 120/95/4 121/96/4
f 109/94/25 108/97/25 119/98/25 120/95/25
f 108/97/26 107/99/26 118/100/26 119/98/26
f 107/99/27 106/101/27 117/102/27 118/100/27
f 106/101/4 105/103/4 116/104/4 117/102/4
f 105/103/28 104/105/28 115/106/28 116/104/28
f 104/105/29 103/86/29 114/85/29 115/106/29
f 98/107/3 99/108/3 102/109/3 103/110/3
f 102/111/23 101/112/23 112/88/23 113/87/23
f 91/113/30 132/114/30 131/45/30 92/48/30
f 91/115/3 92/116/3 109/117/3 110/118/3
f 92/116/3 93/119/3 108/120/3 109/117/3
f 93/119/3 94/121/3 107/122/3 108/120/3
f 94/121/3 95/123/3 106/124/3 107/122/3
f 95/123/3 96/125/3 105/126/3 106/124/3
f 96/125/3 97/127/3 104/128/3 105/126/3
f 97/127/3 98/107/3 103/110/3 104/128/3
f 124/129/31 156/130/31 157/131/31 125/132/31
f 99/133/23 100/134/23 101/112/23 102/111/23
f 101/135/4 85/136/4 89/39/4 112/137/4
f 100/138/3 83/139/3 85/136/3 101/140/3
f 88/141/1 122/142/1 147/143/1 145/144/1
f 113/145/1 124/146/1 125/82/1 114/81/1
f 138/147/32 139/148/32 141/92/32 140/91/32
f 139/148/3 138/147/3 136/149/3 137/150/3
f 146/151/33 144/152/33 145/144/33 147/143/33
f 134/153/34 135/154/34 149/155/34 148/156/34
f 137/150/35 136/149/35 143/157/35 142/158/35
f 163/55/21 167/159/21 96/54/21
f 162/160/22 98/161/22 97/162/22
f 171/163/5 172/164/5 89/39/5 85/136/5
f 160/165/23 155/166/23 100/134/23 99/133/23
f 160/167/36 159/168/36 68/169/36
f 161/170/37 158/171/37 34/172/37
f 162/173/38 166/174/38 62/175/38
f 159/176/31 160/177/31 99/178/31 98/161/31
f 12/32/39 13/31/39 69/179/39 63/180/39
f 15/181/40 14/182/40 18/183/40 19/184/40
f 40/185/41 39/186/41 46/187/41 47/188/41
f 33/189/42 32/190/42 39/186/42 40/185/42
f 80/191/2 75/192/2 16/193/2 79/194/2
f 11/33/43 12/32/43 63/180/43 56/195/43
f 61/196/44 68/169/44 159/168/44 162/173/44 62/175/44
f 5/197/5 14/13/5 73/16/5 13/198/5
f 13/198/5 81/199/5 5/197/5
f 19/200/45 18/20/45 22/19/45 23/201/45
f 56/195/46 63/180/46 64/202/46 57/203/46
f 160/167/47 68/169/47 67/204/47 155/205/47
f 10/34/48 11/33/48 56/195/48 49/206/48
f 151/207/49 26/208/49 156/26/49
f 26/208/50 27/24/50 156/26/50
f 63/180/51 69/179/51 70/209/51 64/202/51
f 24/210/52 23/201/52 29/211/52 30/212/52
f 64/202/53 70/209/53 71/213/53 65/214/53
f 26/208/54 25/215/54 31/216/54 32/190/54
f 27/24/55 26/208/55 32/190/55 33/189/55
f 49/206/56 56/195/56 57/203/56 50/217/56
f 75/192/5 74/15/5 15/14/5 16/193/5
f 58/218/57 65/219/57 66/220/57 59/221/57
f 77/222/58 16/223/58 17/224/58
f 43/225/59 50/217/59 51/226/59 44/227/59
f 30/212/60 29/211/60 36/228/60 37/229/60
f 30/230/61 31/216/61 25/215/61 24/231/61
f 150/232/62 17/224/62 21/233/62 151/234/62
f 32/190/63 31/216/63 38/235/63 39/186/63
f 54/236/64 61/196/64 62/175/64 55/237/64
f 71/238/65 76/239/65 72/240/65
f 34/172/66 41/241/66 164/242/66 168/243/66 161/170/66
f 39/186/67 38/235/67 45/244/67 46/187/67
f 41/241/68 40/185/68 47/188/68 48/245/68
f 45/244/69 52/246/69 53/247/69 46/187/69
f 37/248/70 38/235/70 31/216/70 30/230/70
f 34/172/71 33/189/71 40/185/71 41/241/71
f 52/246/72 59/221/72 60/249/72 53/247/72
f 48/245/73 163/250/73 164/242/73 41/241/73
f 53/247/74 60/249/74 61/196/74 54/236/74
f 42/251/75 49/206/75 50/217/75 43/225/75
f 29/211/76 28/252/76 35/253/76 36/228/76
f 60/249/77 67/204/77 68/169/77 61/196/77
f 44/254/78 51/255/78 52/246/78 45/244/78
f 44/254/79 45/244/79 38/235/79 37/248/79
f 59/221/80 66/220/80 67/204/80 60/249/80
f 36/228/81 35/253/81 42/251/81 43/225/81
f 20/256/82 24/231/82 25/215/82 21/257/82
f 51/255/83 58/218/83 59/221/83 52/246/83
f 66/220/84 65/219/84 71/258/84 72/259/84
f 23/201/85 22/19/85 28/252/85 29/211/85
f 37/229/86 36/228/86 43/225/86 44/227/86
f 69/27/87 73/29/87 74/260/87 70/261/87
f 66/220/88 72/259/88 155/205/88 67/204/88
f 50/217/89 57/203/89 58/262/89 51/226/89
f 25/215/90 26/208/90 151/207/90 21/257/90
f 28/252/91 7/37/91 8/36/91 35/253/91
f 9/35/92 10/34/92 49/206/92 42/251/92
f 72/240/93 76/239/93 154/263/93 155/264/93
f 57/203/94 64/202/94 65/214/94 58/262/94
f 70/261/95 74/260/95 75/265/95 71/266/95
f 47/188/96 54/236/96 55/237/96 48/245/96
f 46/187/97 53/247/97 54/236/97 47/188/97
f 35/253/98 8/36/98 9/35/98 42/251/98
f 16/267/99 15/181/99 19/184/99 20/268/99
f 22/19/100 6/18/100 7/37/100 28/252/100
f 169/269/5 171/163/5 85/136/5 83/139/5
f 55/237/101 62/175/101 166/174/101 165/270/101 167/271/101
f 78/272/102 75/273/102 80/274/102
f 87/40/5 89/39/5 172/164/5 170/275/5
f 17/276/103 152/277/103 77/278/103
f 79/194/5 77/279/5 78/280/5 80/191/5
f 48/245/104 55/237/104 167/271/104 163/250/104
f 76/281/105 153/282/105 154/283/105
f 20/284/106 19/200/106 23/201/106 24/210/106
f 152/285/5 153/286/5 78/280/5 77/279/5
f 142/158/3 143/157/3 111/287/3 84/288/3
f 148/156/1 149/155/1 133/289/1 86/290/1
f 17/224/107 20/291/107 21/233/107
f 77/292/108 79/293/108 16/294/108
f 17/224/109 150/232/109 152/295/109
f 17/224/110 16/223/110 20/291/110
f 78/272/111 76/296/111 75/273/111
f 76/296/112 78/272/112 153/297/112
f 71/238/113 75/298/113 76/239/113
f 158/171/114 157/25/114 27/24/114 33/189/114 34/172/114
f 87/40/5 170/275/5 169/269/5 83/139/5
f 127/53/21 164/299/21 163/55/21
f 168/300/21 164/299/21 127/53/21 126/56/21
f 83/139/2 100/301/2 155/302/2 154/303/2
f 87/40/2 83/139/2 153/304/2 152/305/2
f 167/159/21 165/306/21 97/162/21 96/54/21
f 148/307/23 86/308/23 82/309/23 141/310/23
f 144/311/23 137/312/23 142/313/23 145/314/23
f 134/315/23 148/307/23 141/310/23 139/316/23
f 88/317/23 145/314/23 142/313/23 84/318/23
f 132/319/5 133/320/5 149/321/5
f 144/152/1 146/151/1 135/154/1 134/153/1
f 136/322/5 138/323/5 91/324/5 110/325/5
f 91/324/5 138/323/5 140/326/5
f 90/327/5 91/324/5 140/326/5
f 136/322/5 110/325/5 143/328/5
f 87/40/2 152/305/2 150/329/2
f 153/304/2 83/139/2 154/303/2
f 123/330/2 87/40/2 150/329/2 151/331/2
f 97/162/22 165/306/22 166/332/22
f 162/160/22 159/176/22 98/161/22
f 97/162/22 166/332/22 162/160/22
f 126/56/22 125/132/22 158/57/22
f 125/132/22 157/131/22 158/57/22
f 161/58/22 168/300/22 126/56/22
f 132/319/5 149/321/5 135/333/5
f 146/334/5 147/335/5 121/336/5
f 132/319/5 135/333/5 146/334/5 121/336/5
f 144/311/23 134/315/23 139/316/23 137/312/23
f 143/337/5 110/338/5 111/339/5
f 86/340/2 133/341/2 132/342/2
f 82/44/2 86/340/2 132/342/2 91/42/2
f 121/343/5 147/344/5 122/345/5
f 122/345/5 111/339/5 110/338/5 121/343/5
